<svg id="el_RQrsG-KJS" data-name="Layer 1" xmlns="http://www.w3.org/2000/svg" viewBox="0 0 400 400"><style>@-webkit-keyframes kf_el_g2AdtHOnSH_an_Ry_f_uyUW{
0%{opacity: 1;}
50%{opacity: 0.5;}
100%{opacity: 1;}}
@keyframes kf_el_g2AdtHOnSH_an_Ry_f_uyUW{
0%{opacity: 1;}
50%{opacity: 0.5;}
100%{opacity: 1;}}
@-webkit-keyframes kf_el_g2AdtHOnSH_an_nVoj-eujR{
0%{-webkit-transform: translate(200px, 199.9871063232422px) scale(1, 1) translate(-200px, -199.9871063232422px);transform: translate(200px, 199.9871063232422px) scale(1, 1) translate(-200px, -199.9871063232422px);}
50%{-webkit-transform: translate(200px, 199.9871063232422px) scale(0.75, 0.75) translate(-200px, -199.9871063232422px);transform: translate(200px, 199.9871063232422px) scale(0.75, 0.75) translate(-200px, -199.9871063232422px);}
100%{-webkit-transform: translate(200px, 199.9871063232422px) scale(1, 1) translate(-200px, -199.9871063232422px);transform: translate(200px, 199.9871063232422px) scale(1, 1) translate(-200px, -199.9871063232422px);}}
@keyframes kf_el_g2AdtHOnSH_an_nVoj-eujR{
0%{-webkit-transform: translate(200px, 199.9871063232422px) scale(1, 1) translate(-200px, -199.9871063232422px);transform: translate(200px, 199.9871063232422px) scale(1, 1) translate(-200px, -199.9871063232422px);}
50%{-webkit-transform: translate(200px, 199.9871063232422px) scale(0.75, 0.75) translate(-200px, -199.9871063232422px);transform: translate(200px, 199.9871063232422px) scale(0.75, 0.75) translate(-200px, -199.9871063232422px);}
100%{-webkit-transform: translate(200px, 199.9871063232422px) scale(1, 1) translate(-200px, -199.9871063232422px);transform: translate(200px, 199.9871063232422px) scale(1, 1) translate(-200px, -199.9871063232422px);}}
@-webkit-keyframes kf_el_g2AdtHOnSH_an_RJMz8-i5w{
0%{-webkit-transform: translate(200px, 199.9871063232422px) rotate(0deg) translate(-200px, -199.9871063232422px);transform: translate(200px, 199.9871063232422px) rotate(0deg) translate(-200px, -199.9871063232422px);}
100%{-webkit-transform: translate(200px, 199.9871063232422px) rotate(360deg) translate(-200px, -199.9871063232422px);transform: translate(200px, 199.9871063232422px) rotate(360deg) translate(-200px, -199.9871063232422px);}}
@keyframes kf_el_g2AdtHOnSH_an_RJMz8-i5w{
0%{-webkit-transform: translate(200px, 199.9871063232422px) rotate(0deg) translate(-200px, -199.9871063232422px);transform: translate(200px, 199.9871063232422px) rotate(0deg) translate(-200px, -199.9871063232422px);}
100%{-webkit-transform: translate(200px, 199.9871063232422px) rotate(360deg) translate(-200px, -199.9871063232422px);transform: translate(200px, 199.9871063232422px) rotate(360deg) translate(-200px, -199.9871063232422px);}}
#el_RQrsG-KJS *{-webkit-animation-duration: 3s;animation-duration: 3s;-webkit-animation-iteration-count: infinite;animation-iteration-count: infinite;-webkit-animation-timing-function: cubic-bezier(0, 0, 1, 1);animation-timing-function: cubic-bezier(0, 0, 1, 1);}
#el_g2AdtHOnSH{fill: #fff;-webkit-animation-fill-mode: backwards;animation-fill-mode: backwards;opacity: 1;-webkit-animation-name: kf_el_g2AdtHOnSH_an_Ry_f_uyUW;animation-name: kf_el_g2AdtHOnSH_an_Ry_f_uyUW;-webkit-animation-timing-function: cubic-bezier(0.42, 0, 0.58, 1);animation-timing-function: cubic-bezier(0.42, 0, 0.58, 1);}
#el_g2AdtHOnSH_an_RJMz8-i5w{-webkit-animation-fill-mode: backwards;animation-fill-mode: backwards;-webkit-transform: translate(200px, 199.9871063232422px) rotate(0deg) translate(-200px, -199.9871063232422px);transform: translate(200px, 199.9871063232422px) rotate(0deg) translate(-200px, -199.9871063232422px);-webkit-animation-name: kf_el_g2AdtHOnSH_an_RJMz8-i5w;animation-name: kf_el_g2AdtHOnSH_an_RJMz8-i5w;-webkit-animation-timing-function: cubic-bezier(0.42, 0, 0.58, 1);animation-timing-function: cubic-bezier(0.42, 0, 0.58, 1);}
#el_g2AdtHOnSH_an_nVoj-eujR{-webkit-animation-fill-mode: backwards;animation-fill-mode: backwards;-webkit-transform: translate(200px, 199.9871063232422px) scale(1, 1) translate(-200px, -199.9871063232422px);transform: translate(200px, 199.9871063232422px) scale(1, 1) translate(-200px, -199.9871063232422px);-webkit-animation-name: kf_el_g2AdtHOnSH_an_nVoj-eujR;animation-name: kf_el_g2AdtHOnSH_an_nVoj-eujR;-webkit-animation-timing-function: cubic-bezier(0.42, 0, 0.58, 1);animation-timing-function: cubic-bezier(0.42, 0, 0.58, 1);}</style><defs/><title>Logo-white</title><g id="el_g2AdtHOnSH_an_RJMz8-i5w" data-animator-group="true" data-animator-type="1"><g id="el_g2AdtHOnSH_an_nVoj-eujR" data-animator-group="true" data-animator-type="2"><path d="M179.71,326.93c-11-6.31-32.7-18.88-48.34-27.93l-39.9-23.08L80,269.29V200.22c0-68.52,0-69.09,1.44-70,.79-.5,7.87-4.59,15.73-9.1s21-12.13,29.25-16.92C141.3,95.57,183.93,71,194.47,65L200,61.89l12.25,7C219,72.79,233,80.86,243.34,86.85c37.77,21.84,49.67,28.71,63,36.37L320,131v68.74c0,37.81-.21,69.06-.47,69.44s-5.28,3.45-11.14,6.79-18,10.34-27,15.54c-61.6,35.61-80.07,46.23-81,46.57-.44.17-9.76-4.86-20.71-11.18ZM211.53,320c15.93-9.26,77.91-45.09,93.47-54l4.44-2.55V137L283,121.67c-27.88-16.11-39.77-23-66.23-38.23-8.93-5.16-16.49-9.38-16.79-9.38-.58,0-5.92,3-27.39,15.46-15.43,8.94-70.83,41-80.15,46.31l-2,1.12V263.46l14,8.1L136,289.71c19.83,11.44,42.74,24.71,54.74,31.72,4.5,2.62,8.58,4.8,9.07,4.83s5.77-2.77,11.73-6.24Zm-13.69-62c-.59-.38-7.11-4-14.49-8.06l-13.43-7.36L167.71,244a9.16,9.16,0,0,1-3.52,1.35c-1.26,0-19.61-9.91-21.81-11.79-.89-.76-1.06-3-1-12.86.06-6.57.14-12.27.19-12.68s2.33-1.95,5.06-3.42l5-2.69V178.54l2.67-1.67c1.46-.91,7.22-4.19,12.79-7.27L177.22,164V153.82l11.09-6.12c6.1-3.37,11.33-6.13,11.62-6.13s4.66,2.28,9.71,5.08,10.19,5.5,11.43,6l2.26,1-.39,5.17-.39,5.16,10.93,6c6,3.29,11.8,6.59,12.86,7.32l1.94,1.33.2,11.8.19,11.79,5,2.56,5,2.56-.15,12.43c-.09,6.84-.19,12.66-.24,12.92-.08.55-6,4.15-13.22,8-2.74,1.47-5.61,3.11-6.38,3.65-1.93,1.32-3.88,1.21-6.51-.4L230,242.6l-8.44,4.63c-4.65,2.54-11.24,6.19-14.66,8.1C200.46,259,199.62,259.2,197.84,258Zm17-12.59c4.88-2.73,9-5.23,9.06-5.56s-1.93-1.72-4.53-3.09a39.64,39.64,0,0,1-5.68-3.43c-.73-.71-1-3.78-.95-12.79,0-6.52.25-12.22.53-12.67.78-1.21,21.05-12.33,22.49-12.33a13.27,13.27,0,0,1,4.31,1.8c2.22,1.3,3.15,1.55,3.36.89a78.7,78.7,0,0,0,.27-9l-.05-8.12-9.95-5.55c-5.47-3.05-10.19-5.55-10.48-5.56s-.54,2.05-.54,4.56c0,5.42.68,4.79-13.35,12.43l-9.45,5.15L190.53,187c-14-7.66-13.31-7-13.31-12.43,0-2.51-.24-4.56-.53-4.55s-5,2.51-10.49,5.58l-9.95,5.56,0,8.1a86.17,86.17,0,0,0,.23,8.92c.17.54,1.28.24,3.24-.88a13.1,13.1,0,0,1,4.42-1.71c.79,0,5.68,2.39,10.85,5.32s9.86,5.33,10.42,5.33a1.91,1.91,0,0,1,1.47.74c.52.85.47,24.4-.06,25.74-.19.49-2.74,2.14-5.67,3.68s-5.24,3.08-5.13,3.43,5.48,3.58,11.92,7.2l11.72,6.58,3.2-1.6c1.76-.88,7.19-3.83,12.06-6.56Zm-53.31-15.22v-8.71l-7.4-4.09c-4.08-2.24-7.6-4.08-7.84-4.08s-.33,3.87-.22,8.61l.2,8.6,7.46,4.14c4.11,2.27,7.55,4.15,7.65,4.18s.17-3.87.16-8.65Zm15.12,3.21,5.51-3.16v-8.53c0-4.68-.24-8.41-.54-8.28s-3.82,2-7.82,4.14l-7.27,3.91V239l2.31-1.19c1.27-.64,4.79-2.6,7.82-4.34Zm56.7-3.24v-8.72l-7.27-3.89c-4-2.14-7.52-4-7.83-4.12s-.54,3.59-.54,8.28v8.52l7.63,4.33c4.21,2.38,7.72,4.33,7.83,4.33S233.39,235,233.39,230.19Zm15.81,2.7,4.8-2.63V221.8c0-4.65-.19-8.46-.42-8.46s-3.76,1.81-7.82,4l-7.4,4v17.65l3-1.76C243.05,236.32,246.57,234.34,249.2,232.89Zm-69.86-23.81a13.66,13.66,0,0,0-3.37-2.16c-1.85-1-5.29-2.84-7.63-4.13l-4.27-2.34-7.73,4.23-7.73,4.23,3.11,1.77c1.71,1,5.19,2.9,7.73,4.27l4.62,2.5,7.63-4A67.57,67.57,0,0,0,179.34,209.08Zm70.95.11c.19-.58-13.36-8.64-14.52-8.64-.51,0-13,7-14.31,8-.67.52,1.13,1.79,6.73,4.77l7.64,4.05,7.12-3.78C246.87,211.55,250.17,209.55,250.29,209.19Zm-52.61-32.87-.19-8.59-7-3.85c-3.82-2.11-7.3-3.92-7.75-4-.86-.18-1.38,15.25-.56,16.58.47.75,14.22,8.48,15.1,8.48C197.63,184.92,197.79,181.05,197.68,176.32Zm13,4.48,7.46-4.08,0-8.16c0-4.49-.08-8.39-.21-8.67-.21-.45-2.77.82-12.62,6.26l-2.85,1.57-.2,8.6c-.11,4.73.05,8.59.36,8.58a90,90,0,0,0,8-4.1Zm-3.17-21.24c6-3.23,7.29-4.22,6.57-4.91a71,71,0,0,0-7.54-4.4l-6.62-3.52-7.06,3.89a68.7,68.7,0,0,0-7.4,4.42c-.25.4,13.36,8.48,14.38,8.55C199.9,163.59,203.35,161.78,207.47,159.56Z" id="el_g2AdtHOnSH"/></g></g></svg>