<svg width="321" height="80" viewBox="0 0 321 80" fill="none" xmlns="http://www.w3.org/2000/svg">
<path d="M104.347 33.5606C102.89 33.5606 101.712 34.1997 100.812 35.478C99.9124 36.7563 99.4625 38.4607 99.4625 40.5912C99.4625 42.6365 99.891 44.2983 100.748 45.5766C101.626 46.8549 102.836 47.494 104.379 47.494C105.236 47.494 106.028 47.3875 106.757 47.1744C107.485 46.9614 108.149 46.6951 108.749 46.3755L110.741 50.2743C109.906 50.7643 108.899 51.1371 107.721 51.3928C106.542 51.6698 105.429 51.8083 104.379 51.8083C100.887 51.8083 98.2843 50.7537 96.5706 48.6445C94.8569 46.5353 94 43.8615 94 40.6232C94 37.2783 94.9104 34.5513 96.7313 32.4421C98.5735 30.3116 101.112 29.2463 104.347 29.2463C105.268 29.2463 106.307 29.3848 107.464 29.6618C108.642 29.9387 109.67 30.3542 110.548 30.9081L108.974 34.4873C107.881 34.1465 107.035 33.9121 106.435 33.7843C105.836 33.6352 105.139 33.5606 104.347 33.5606Z" fill="white"/>
<path d="M124.705 35.3502C126.868 35.3502 128.411 35.968 129.332 37.2037C130.274 38.4181 130.746 39.9414 130.746 41.7736V51.3928H125.476V41.9334C125.476 41.2091 125.272 40.6551 124.865 40.2716C124.458 39.8668 123.923 39.6644 123.259 39.6644C122.809 39.6644 122.284 39.7816 121.684 40.016C121.106 40.2503 120.581 40.506 120.11 40.783V51.3928H114.84V29.1824L120.11 28.8309V36.5646C120.774 36.2024 121.524 35.9148 122.359 35.7017C123.194 35.4674 123.976 35.3502 124.705 35.3502Z" fill="white"/>
<path d="M140.396 47.5579C140.803 47.5579 141.221 47.462 141.649 47.2703C142.099 47.0786 142.527 46.8122 142.934 46.4714V44.9055H140.653C140.16 44.9055 139.764 45.0546 139.464 45.3529C139.164 45.6298 139.014 45.9707 139.014 46.3755C139.014 46.6951 139.143 46.972 139.4 47.2064C139.678 47.4407 140.01 47.5579 140.396 47.5579ZM141.649 35.3822C143.663 35.3822 145.259 35.9574 146.437 37.1079C147.615 38.2583 148.204 39.7603 148.204 41.6138V51.3928H145.762L144.702 50.1784C144.188 50.6258 143.545 50.9987 142.774 51.2969C142.003 51.5952 141.199 51.7443 140.364 51.7443C138.414 51.7443 136.958 51.265 135.994 50.3063C135.051 49.3475 134.58 48.0905 134.58 46.5353C134.58 44.8735 135.137 43.6485 136.251 42.8602C137.365 42.0506 138.821 41.6458 140.621 41.6458H142.902C142.838 41.0706 142.602 40.6232 142.195 40.3036C141.81 39.984 141.317 39.8242 140.717 39.8242C140.118 39.8242 139.421 39.9201 138.629 40.1118C137.858 40.3036 137.183 40.5273 136.604 40.783L135.191 36.8522C135.94 36.4687 136.926 36.1278 138.147 35.8296C139.389 35.5313 140.557 35.3822 141.649 35.3822Z" fill="white"/>
<path d="M158.348 30.9081C158.348 31.6964 158.059 32.3675 157.481 32.9214C156.902 33.4754 156.217 33.7523 155.424 33.7523C154.632 33.7523 153.957 33.4754 153.4 32.9214C152.843 32.3675 152.564 31.6964 152.564 30.9081C152.564 30.1198 152.843 29.4381 153.4 28.8628C153.957 28.2876 154.632 28 155.424 28C156.217 28 156.902 28.2876 157.481 28.8628C158.059 29.4381 158.348 30.1198 158.348 30.9081ZM158.091 35.8935V51.3928H152.789V35.8935H158.091Z" fill="white"/>
<path d="M172.844 35.3182C175.008 35.3182 176.55 35.9361 177.472 37.1718C178.414 38.4075 178.885 39.9414 178.885 41.7736V51.3928H173.616V41.9015C173.616 41.1771 173.412 40.6232 173.005 40.2397C172.619 39.8562 172.095 39.6644 171.431 39.6644C170.981 39.6644 170.456 39.7816 169.856 40.016C169.256 40.2503 168.721 40.506 168.249 40.783V51.3928H162.98V35.9254H165.647L166.868 37.3635C167.553 36.8735 168.432 36.4154 169.503 35.9893C170.595 35.5419 171.709 35.3182 172.844 35.3182Z" fill="white"/>
<path d="M201.037 50.2104C200.18 50.7004 199.055 51.0945 197.663 51.3928C196.27 51.6698 194.974 51.8083 193.775 51.8083C190.283 51.8083 187.616 50.7963 185.774 48.7723C183.953 46.727 183.042 44.0107 183.042 40.6232C183.042 37.1505 184.06 34.3915 186.095 32.3462C188.152 30.2796 190.819 29.2463 194.096 29.2463C195.017 29.2463 196.142 29.3848 197.47 29.6618C198.798 29.9387 199.901 30.3542 200.78 30.9081L199.205 34.4873C198.113 34.1465 197.192 33.9121 196.442 33.7843C195.713 33.6352 194.953 33.5606 194.16 33.5606C192.618 33.5606 191.29 34.1465 190.176 35.3182C189.062 36.49 188.505 38.2477 188.505 40.5912C188.505 42.9348 189.008 44.6711 190.015 45.8003C191.022 46.9294 192.307 47.494 193.871 47.494C194.3 47.494 194.717 47.4727 195.124 47.4301C195.531 47.3875 195.917 47.3236 196.281 47.2383V42.988H192.265L192.04 39.0892H201.037V50.2104Z" fill="white"/>
<path d="M211.639 52C209.475 52 207.944 51.3822 207.044 50.1465C206.144 48.9108 205.694 47.3768 205.694 45.5446V35.9254H210.996V45.4168C210.996 46.1411 211.178 46.6951 211.542 47.0786C211.907 47.462 212.421 47.6538 213.085 47.6538C213.492 47.6538 213.974 47.5473 214.531 47.3342C215.088 47.1212 215.602 46.8762 216.073 46.5992V35.9254H221.375V51.3928H218.708L217.487 50.0186C216.823 50.4873 215.966 50.9348 214.916 51.3608C213.888 51.7869 212.796 52 211.639 52Z" fill="white"/>
<path d="M231.258 47.5579C231.665 47.5579 232.083 47.462 232.512 47.2703C232.962 47.0786 233.39 46.8122 233.797 46.4714V44.9055H231.516C231.023 44.9055 230.627 45.0546 230.327 45.3529C230.027 45.6298 229.877 45.9707 229.877 46.3755C229.877 46.6951 230.005 46.972 230.262 47.2064C230.541 47.4407 230.873 47.5579 231.258 47.5579ZM232.512 35.3822C234.525 35.3822 236.121 35.9574 237.299 37.1079C238.478 38.2583 239.067 39.7603 239.067 41.6138V51.3928H236.625L235.564 50.1784C235.05 50.6258 234.407 50.9987 233.636 51.2969C232.865 51.5952 232.062 51.7443 231.226 51.7443C229.277 51.7443 227.82 51.265 226.856 50.3063C225.914 49.3475 225.442 48.0905 225.442 46.5353C225.442 44.8735 225.999 43.6485 227.113 42.8602C228.227 42.0506 229.684 41.6458 231.483 41.6458H233.765C233.701 41.0706 233.465 40.6232 233.058 40.3036C232.672 39.984 232.18 39.8242 231.58 39.8242C230.98 39.8242 230.284 39.9201 229.491 40.1118C228.72 40.3036 228.045 40.5273 227.467 40.783L226.053 36.8522C226.803 36.4687 227.788 36.1278 229.009 35.8296C230.252 35.5313 231.419 35.3822 232.512 35.3822Z" fill="white"/>
<path d="M252.681 35.8935L253.742 40.1118C252.992 40.1118 252.188 40.261 251.332 40.5593C250.475 40.8362 249.682 41.273 248.954 41.8695V51.3928H243.652V35.9254H246.319L247.733 37.747C248.375 37.2783 249.147 36.8522 250.046 36.4687C250.946 36.0852 251.824 35.8935 252.681 35.8935Z" fill="white"/>
<path d="M264.758 47.4301C265.079 47.4301 265.454 47.3662 265.882 47.2383C266.332 47.1105 266.729 46.9507 267.071 46.759V40.6871C266.707 40.3888 266.279 40.1438 265.786 39.9521C265.293 39.7603 264.843 39.6644 264.436 39.6644C263.365 39.6644 262.605 40.1012 262.155 40.9747C261.727 41.8269 261.512 42.6897 261.512 43.5632C261.512 44.5859 261.759 45.4913 262.251 46.2796C262.766 47.0466 263.601 47.4301 264.758 47.4301ZM272.373 28.8309V51.3928H269.674L268.614 49.8269C268.078 50.3169 267.361 50.7643 266.461 51.1691C265.582 51.5526 264.565 51.7443 263.408 51.7443C260.988 51.7443 259.156 50.9774 257.913 49.4434C256.671 47.8881 256.05 45.9494 256.05 43.6272C256.05 41.3049 256.671 39.3449 257.913 37.747C259.177 36.1278 261.095 35.3182 263.665 35.3182C264.201 35.3182 264.768 35.4035 265.368 35.5739C265.968 35.723 266.536 35.9361 267.071 36.213V29.1824L272.373 28.8309Z" fill="white"/>
<path d="M282.863 30.9081C282.863 31.6964 282.574 32.3675 281.996 32.9214C281.417 33.4754 280.732 33.7523 279.939 33.7523C279.147 33.7523 278.472 33.4754 277.915 32.9214C277.358 32.3675 277.08 31.6964 277.08 30.9081C277.08 30.1198 277.358 29.4381 277.915 28.8628C278.472 28.2876 279.147 28 279.939 28C280.732 28 281.417 28.2876 281.996 28.8628C282.574 29.4381 282.863 30.1198 282.863 30.9081ZM282.606 35.8935V51.3928H277.305V35.8935H282.606Z" fill="white"/>
<path d="M292.508 47.5579C292.915 47.5579 293.332 47.462 293.761 47.2703C294.211 47.0786 294.639 46.8122 295.046 46.4714V44.9055H292.765C292.272 44.9055 291.876 45.0546 291.576 45.3529C291.276 45.6298 291.126 45.9707 291.126 46.3755C291.126 46.6951 291.254 46.972 291.511 47.2064C291.79 47.4407 292.122 47.5579 292.508 47.5579ZM293.761 35.3822C295.774 35.3822 297.37 35.9574 298.548 37.1079C299.727 38.2583 300.316 39.7603 300.316 41.6138V51.3928H297.874L296.813 50.1784C296.299 50.6258 295.657 50.9987 294.885 51.2969C294.114 51.5952 293.311 51.7443 292.475 51.7443C290.526 51.7443 289.069 51.265 288.105 50.3063C287.163 49.3475 286.692 48.0905 286.692 46.5353C286.692 44.8735 287.248 43.6485 288.362 42.8602C289.476 42.0506 290.933 41.6458 292.732 41.6458H295.014C294.95 41.0706 294.714 40.6232 294.307 40.3036C293.921 39.984 293.429 39.8242 292.829 39.8242C292.229 39.8242 291.533 39.9201 290.74 40.1118C289.969 40.3036 289.294 40.5273 288.716 40.783L287.302 36.8522C288.052 36.4687 289.037 36.1278 290.258 35.8296C291.501 35.5313 292.668 35.3822 293.761 35.3822Z" fill="white"/>
<path d="M314.798 35.3182C316.961 35.3182 318.504 35.9361 319.425 37.1718C320.367 38.4075 320.839 39.9414 320.839 41.7736V51.3928H315.569V41.9015C315.569 41.1771 315.365 40.6232 314.958 40.2397C314.573 39.8562 314.048 39.6644 313.384 39.6644C312.934 39.6644 312.409 39.7816 311.809 40.016C311.21 40.2503 310.674 40.506 310.203 40.783V51.3928H304.933V35.9254H307.6L308.821 37.3635C309.507 36.8735 310.385 36.4154 311.456 35.9893C312.548 35.5419 313.662 35.3182 314.798 35.3182Z" fill="white"/>
<path d="M28.9395 76.7623C25.762 74.9337 19.4484 71.2932 14.9092 68.6723C10.37 66.0514 5.15844 63.0435 3.32803 61.988L0 60.069L0.00123984 40.0631C0.00247897 20.2196 0.00579917 20.0552 0.418887 19.7978C0.647949 19.6552 2.70212 18.4693 4.98371 17.1626C7.2653 15.8559 11.0857 13.6513 13.4734 12.2634C17.7899 9.75455 30.1632 2.64017 33.2242 0.907194L34.8266 0L38.3824 2.03747C40.338 3.15809 44.3986 5.49465 47.4058 7.22983C58.3679 13.555 61.8225 15.5438 65.7004 17.7619L69.6552 20.0241V39.933C69.6552 50.8828 69.5935 59.9335 69.5175 60.0456C69.4415 60.1576 67.9866 61.0426 66.2844 62.0122C64.5822 62.9818 61.054 65.0068 58.444 66.5122C40.5666 76.8237 35.2053 79.901 34.948 79.9988C34.8205 80.0473 32.1165 78.5908 28.9391 76.7623H28.9395ZM38.1733 74.7599C42.7981 72.0768 60.7847 61.7013 65.3029 59.1103L66.5905 58.3719V40.0559V21.7399L58.9188 17.3153C50.8273 12.6488 47.3769 10.6607 39.6988 6.24101C37.1054 4.7482 34.9122 3.52681 34.825 3.52681C34.6557 3.52681 33.107 4.3987 26.8762 8.00189C22.3969 10.5922 6.31785 19.8635 3.61402 21.4151L3.04792 21.7399L3.04668 40.0597L3.04544 58.3795L7.12042 60.7256C9.36166 62.0159 13.4702 64.3809 16.2504 65.9811C22.0053 69.2935 28.6536 73.1375 32.1377 75.167C33.4427 75.9272 34.6268 76.5572 34.769 76.5671C34.9112 76.5769 36.4432 75.7637 38.1734 74.7599H38.1733ZM34.2008 56.8078C34.0306 56.6966 32.1376 55.6463 29.9941 54.4737L26.0968 52.3417L25.4548 52.7321C25.1018 52.9469 24.642 53.1229 24.4332 53.1233C24.0673 53.1241 18.743 50.2518 18.1042 49.709C17.8455 49.4893 17.7967 48.8461 17.8212 45.9845C17.8375 44.082 17.8621 42.4292 17.8759 42.3116C17.8897 42.1939 18.5509 41.7475 19.3452 41.3195L20.7895 40.5414V37.1628V33.7843L21.5632 33.3019C21.9888 33.0367 23.6601 32.0882 25.2772 31.1943L28.2173 29.5689V28.0975V26.6261L31.4352 24.8519C33.205 23.876 34.7227 23.0776 34.808 23.0776C34.8933 23.0776 36.161 23.7392 37.6253 24.5478C39.0895 25.3564 40.5822 26.1419 40.9425 26.2934L41.5974 26.5687L41.4849 28.0645L41.3725 29.5602L44.5439 31.2943C46.2882 32.248 47.9684 33.2019 48.2778 33.4142L48.8402 33.8001L48.8968 37.2163L48.9533 40.6325L50.4134 41.3732L51.8734 42.1139L51.8282 45.7154C51.8033 47.6962 51.773 49.3796 51.7608 49.4563C51.7354 49.6166 50.019 50.6584 47.9217 51.7866C47.1273 52.2138 46.2942 52.6896 46.0704 52.8438C45.5121 53.2283 44.9444 53.1941 44.1814 52.73L43.536 52.3375L41.0865 53.6776C39.7392 54.4146 37.8252 55.4714 36.8331 56.026C34.9602 57.0729 34.7171 57.1451 34.2008 56.8078ZM39.1461 53.1596C40.5609 52.3696 41.7439 51.6448 41.7749 51.549C41.8058 51.4532 41.2143 51.0507 40.4603 50.6545C39.7063 50.2584 38.9643 49.8118 38.8115 49.6623C38.6004 49.4556 38.5345 48.5665 38.5369 45.9579C38.5385 44.0701 38.6083 42.4189 38.6916 42.2886C38.917 41.9364 44.7999 38.7182 45.2184 38.7182C45.4165 38.7182 45.9788 38.9522 46.468 39.2382C47.1141 39.6158 47.3815 39.6862 47.445 39.4954C47.4932 39.3509 47.5273 38.1745 47.5208 36.8811L47.509 34.5295L44.6204 32.9226C43.0317 32.0389 41.6622 31.3144 41.5771 31.3127C41.492 31.311 41.4223 31.9052 41.4223 32.6332C41.4223 34.2019 41.619 34.0192 37.5465 36.2329L34.8056 37.7229L32.0789 36.2328C28.0167 34.013 28.2173 34.2001 28.2173 32.6332C28.2173 31.9052 28.1477 31.3112 28.0626 31.3133C27.9775 31.3153 26.608 32.0425 25.0193 32.9291L22.1307 34.5412L22.1189 36.887C22.1124 38.1771 22.1421 39.3395 22.1848 39.4699C22.2359 39.6259 22.5578 39.5387 23.1251 39.2151C23.5995 38.9446 24.1766 38.7221 24.4075 38.7207C24.6385 38.7193 26.056 39.4128 27.5576 40.2617C29.0592 41.1106 30.42 41.8052 30.5815 41.8052C30.7431 41.8052 30.9351 41.9018 31.0083 42.0199C31.1594 42.2638 31.1433 49.086 30.9906 49.4748C30.9358 49.6143 30.1948 50.0935 29.3439 50.5397C28.493 50.986 27.8239 51.4324 27.8571 51.5317C27.8903 51.6311 29.4473 52.5698 31.3171 53.6176L34.7167 55.5228L35.6451 55.0594C36.1558 54.8046 37.7312 53.9497 39.1461 53.1596H39.1461ZM23.6748 48.7509L23.6715 46.2299L21.5222 45.0465C20.34 44.3957 19.3173 43.8632 19.2495 43.8632C19.1817 43.8632 19.1523 44.9849 19.1841 46.356L19.2421 48.8488L21.4085 50.0462C22.6001 50.7048 23.5982 51.25 23.6265 51.2578C23.6549 51.2655 23.6766 50.1374 23.6748 48.7509H23.6748ZM28.0626 49.6823L29.6616 48.7663V46.2976C29.6616 44.9398 29.5906 43.8597 29.5039 43.8975C29.4171 43.9352 28.3963 44.4754 27.2354 45.098L25.1246 46.2299L25.1236 48.7562L25.1225 51.2825L25.7931 50.9404C26.1619 50.7522 27.1832 50.1861 28.0627 49.6823H28.0626ZM44.5172 48.7451V46.2182L42.4068 45.0922C41.2461 44.4728 40.2247 43.9352 40.1372 43.8975C40.0497 43.8597 39.978 44.9394 39.978 46.2967V48.7646L42.1949 50.0182C43.4142 50.7077 44.4356 51.2719 44.4645 51.2719C44.4935 51.2719 44.5172 50.1348 44.5172 48.7451ZM49.108 49.5267L50.5008 48.7646V46.3139C50.5008 44.966 50.4453 43.8632 50.3774 43.8632C50.3096 43.8632 49.2883 44.3883 48.1078 45.0301L45.9615 46.1971V48.754V51.311L46.8384 50.7999C47.3207 50.5188 48.342 49.9459 49.108 49.5267ZM28.8307 42.6284C28.8319 42.5718 28.3926 42.2915 27.8545 42.0056C27.3164 41.7196 26.3191 41.1806 25.6382 40.8078L24.4003 40.1299L22.1571 41.3558L19.9139 42.5817L20.816 43.0941C21.3121 43.3759 22.3215 43.9322 23.0591 44.3302L24.4003 45.054L26.6144 43.8926C27.8322 43.2539 28.8295 42.685 28.8307 42.6284ZM49.4238 42.661C49.4795 42.4945 45.5462 40.1588 45.2101 40.1588C45.0621 40.1588 41.45 42.1818 41.0547 42.4861C40.8608 42.6353 41.3825 43.0035 43.0083 43.865L45.2263 45.0404L47.2933 43.946C48.4301 43.344 49.3888 42.7658 49.4238 42.661ZM34.1556 33.1427L34.0977 30.6542L32.0829 29.5402C30.9748 28.9276 29.9618 28.4036 29.8317 28.3759C29.5817 28.3226 29.4317 32.7906 29.6706 33.1761C29.8058 33.3943 33.7981 35.6313 34.0524 35.6313C34.141 35.6313 34.1875 34.5114 34.1556 33.1427ZM37.9147 34.4407L40.0812 33.259L40.0911 30.8951C40.0966 29.595 40.0701 28.4653 40.0323 28.3848C39.971 28.2544 39.2291 28.6213 36.3673 30.1967L35.542 30.6511L35.484 33.1412C35.4522 34.5107 35.4986 35.6293 35.5872 35.6269C35.6758 35.6244 36.7232 35.0907 37.9147 34.4407H37.9147ZM36.9943 28.2875C38.7291 27.3526 39.112 27.0671 38.901 26.8657C38.7557 26.7271 37.7719 26.1543 36.7148 25.5928L34.7926 24.5719L32.7421 25.6979C31.6144 26.3171 30.6486 26.8933 30.596 26.9783C30.5244 27.0938 34.4737 29.4362 34.7701 29.4541C34.7995 29.456 35.8004 28.9309 36.9943 28.2875Z" fill="#33C1FF"/>
</svg>
