<?xml version="1.0" encoding="UTF-8" standalone="no"?>
<svg
   xmlns:dc="http://purl.org/dc/elements/1.1/"
   xmlns:cc="http://creativecommons.org/ns#"
   xmlns:rdf="http://www.w3.org/1999/02/22-rdf-syntax-ns#"
   xmlns:svg="http://www.w3.org/2000/svg"
   xmlns="http://www.w3.org/2000/svg"
   xmlns:sodipodi="http://sodipodi.sourceforge.net/DTD/sodipodi-0.dtd"
   xmlns:inkscape="http://www.inkscape.org/namespaces/inkscape"
   width="240"
   height="240"
   viewBox="0 0 240 240"
   version="1.1"
   id="svg4"
   sodipodi:docname="logo.svg"
   style="fill:none"
   inkscape:export-filename="/home/mpetrunic/projects/eth2/ChainGuardian/assets/logo.png"
   inkscape:export-xdpi="200"
   inkscape:export-ydpi="200"
   inkscape:version="0.92.3 (2405546, 2018-03-11)">
  <metadata
     id="metadata10">
    <rdf:RDF>
      <cc:Work
         rdf:about="">
        <dc:format>image/svg+xml</dc:format>
        <dc:type
           rdf:resource="http://purl.org/dc/dcmitype/StillImage" />
        <dc:title></dc:title>
      </cc:Work>
    </rdf:RDF>
  </metadata>
  <defs
     id="defs8" />
  <sodipodi:namedview
     pagecolor="#ffffff"
     bordercolor="#666666"
     borderopacity="1"
     objecttolerance="10"
     gridtolerance="10"
     guidetolerance="10"
     inkscape:pageopacity="0"
     inkscape:pageshadow="2"
     inkscape:window-width="1853"
     inkscape:window-height="1025"
     id="namedview6"
     showgrid="false"
     inkscape:zoom="1.7039711"
     inkscape:cx="65.214773"
     inkscape:cy="180.05698"
     inkscape:window-x="67"
     inkscape:window-y="27"
     inkscape:window-maximized="1"
     inkscape:current-layer="svg4" />
  <path
     d="M 103.92661,220.56623 C 95.252725,215.56383 78.01772,205.60496 65.626506,198.43569 53.23529,191.26564 39.008856,183.0371 34.012233,180.15006 l -9.084905,-5.24959 0.0034,-54.72778 c 0.0034,-54.283411 0.01245,-54.733263 1.140103,-55.437197 0.625292,-0.390273 6.23278,-3.63431 12.461092,-7.208883 C 44.760231,53.952036 55.189146,47.921103 61.70725,44.124535 73.490474,37.26124 107.26742,17.79929 115.62272,13.058586 l 4.37413,-2.481705 9.70692,5.573675 c 5.33833,3.065498 16.423,9.45739 24.63253,14.204129 29.92412,17.302909 39.35454,22.74344 49.94087,28.811453 l 10.7955,6.188278 v 54.462524 c 0,29.95424 -0.16874,54.71274 -0.37553,55.01935 -0.20758,0.30661 -4.17924,2.72779 -8.82591,5.38032 -4.64667,2.65174 -14.27833,8.19131 -21.40324,12.30953 -48.80157,28.20806 -63.43722,36.62675 -64.13917,36.89374 -0.34781,0.13309 -7.7294,-3.85123 -16.40328,-8.85365 z m 25.20669,-5.47776 c 12.62484,-7.33961 61.72512,-35.72276 74.05842,-42.81042 l 3.51532,-2.0203 V 120.15287 70.048154 L 185.76411,57.944216 C 163.67636,45.178732 154.25704,39.740022 133.29748,27.649632 c -7.07975,-4.083687 -13.06616,-7.424857 -13.30462,-7.424857 -0.4619,0 -4.68946,2.385135 -21.69868,12.241951 -12.227608,7.086002 -56.120356,32.448455 -63.501242,36.692815 l -1.545407,0.888613 -0.0033,50.115016 -0.0034,50.11598 11.123898,6.41739 c 6.118162,3.52958 17.333645,9.99927 24.923216,14.37737 15.709569,9.06122 33.858385,19.57625 43.369295,25.12849 3.56206,2.07971 6.79454,3.80291 7.18274,3.82985 0.38822,0.0269 4.57063,-2.19777 9.29336,-4.94378 z m -10.84384,-49.10899 c -0.46505,-0.30424 -5.63305,-3.1778 -11.48398,-6.38572 l -10.639027,-5.83191 -1.752267,1.06799 c -0.963799,0.58707 -2.218755,1.06877 -2.788874,1.07036 -0.998739,0.002 -15.533208,-7.85539 -17.277079,-9.34009 -0.705993,-0.60134 -0.839333,-2.36098 -0.772386,-10.18863 0.0446,-5.20443 0.11171,-9.72593 0.149265,-10.04759 0.03763,-0.32246 1.842507,-1.54335 4.010956,-2.71433 l 3.942663,-2.12805 v -9.24264 -9.24265 l 2.112118,-1.31914 c 1.161708,-0.72572 5.723929,-3.32041 10.138307,-5.76536 l 8.026114,-4.44623 v -4.025537 -4.025138 l 8.78384,-4.853618 c 4.83129,-2.66956 8.97486,-4.853698 9.20779,-4.853698 0.23213,0 3.69278,1.809868 7.69058,4.02197 3.99702,2.212025 8.07167,4.360826 9.05489,4.775024 l 1.78814,0.753135 -0.30739,4.091848 -0.30661,4.091454 8.65716,4.74412 c 4.76156,2.60896 9.34801,5.21871 10.19258,5.79944 l 1.53543,1.0553 0.15449,9.34565 0.15449,9.34485 3.98514,2.02664 3.9859,2.02583 -0.12359,9.85191 c -0.0674,5.41914 -0.15052,10.02383 -0.1838,10.23378 -0.069,0.43891 -4.75442,3.28872 -10.48017,6.37462 -2.16845,1.16939 -4.44228,2.4703 -5.05311,2.89258 -1.52434,1.05134 -3.07403,0.95785 -5.15691,-0.31136 l -1.76201,-1.07352 -6.68678,3.66584 c -3.67772,2.01632 -8.90276,4.90653 -11.61075,6.42374 -5.11253,2.86406 -5.77644,3.06134 -7.18512,2.13913 z m 13.49953,-9.98025 c 3.86233,-2.16132 7.09083,-4.14358 7.17561,-4.40582 0.0848,-0.26225 -1.52987,-1.3635 -3.5882,-2.44733 -2.05832,-1.08303 -4.08417,-2.30473 -4.5009,-2.71433 -0.57677,-0.56488 -0.75662,-2.99717 -0.74949,-10.13316 0.004,-5.16403 0.19491,-9.68157 0.42228,-10.03809 0.61481,-0.96341 16.67417,-9.76713 17.81662,-9.76713 0.54112,0 2.07575,0.64017 3.41153,1.42293 1.7636,1.03311 2.49327,1.22564 2.66678,0.70354 0.13151,-0.39536 0.22421,-3.61356 0.20679,-7.15185 l -0.0325,-6.43326 -7.8847,-4.39551 c -4.3369,-2.41723 -8.07563,-4.39949 -8.30776,-4.40426 -0.23293,-0.004 -0.42308,1.621 -0.42308,3.61277 0,4.29095 0.53716,3.79182 -10.58001,9.84715 l -7.4822,4.07624 -7.4434,-4.07624 c -11.08896,-6.07276 -10.54111,-5.56095 -10.54111,-9.84715 0,-1.99177 -0.19014,-3.61672 -0.42243,-3.61117 -0.23239,0.006 -3.970794,1.99493 -8.307777,4.42087 l -7.885243,4.40979 -0.03216,6.41661 c -0.01774,3.52958 0.0633,6.70897 0.180004,7.06627 0.139519,0.42704 1.018069,0.18777 2.566724,-0.69719 1.294969,-0.73998 2.870402,-1.34845 3.500813,-1.35241 0.63049,-0.004 4.500102,1.89353 8.599169,4.21567 4.09921,2.32216 7.81339,4.22203 8.25467,4.22203 0.4413,0 0.965,0.26462 1.16465,0.58707 0.41277,0.66788 0.36921,19.33066 -0.0484,20.39387 -0.14894,0.3819 -2.17241,1.69231 -4.49456,2.91319 -2.32317,1.2209 -4.14945,2.44179 -4.05881,2.71354 0.0906,0.27175 4.34086,2.8403 9.44468,5.70673 l 9.28068,5.21157 2.53448,-1.26764 c 1.39362,-0.6972 5.69486,-3.03598 9.55718,-5.1973 z m -42.233885,-12.05997 -0.009,-6.89673 -5.86741,-3.23722 c -3.227083,-1.78023 -6.018891,-3.23722 -6.203966,-3.23722 -0.185153,0 -0.265412,3.06847 -0.17842,6.81909 l 0.158139,6.81988 5.913994,3.27525 c 3.252673,1.80163 5.977297,3.29347 6.054781,3.31407 0.0774,0.0214 0.136745,-3.06451 0.131835,-6.85712 z m 11.977735,2.54796 4.3647,-2.50597 v -6.75332 c 0,-3.71497 -0.19332,-6.66935 -0.4302,-6.56556 -0.23688,0.10299 -3.02363,1.58058 -6.192724,3.28397 l -5.761957,3.09619 -0.0027,6.911 -0.0027,6.91098 1.830541,-0.93646 c 1.006823,-0.5142 3.794822,-2.06308 6.19556,-3.44083 z m 44.91795,-2.56459 v -6.91178 l -5.76062,-3.08037 c -3.16909,-1.69467 -5.9571,-3.16512 -6.19557,-3.26811 -0.23926,-0.10379 -0.43495,2.8498 -0.43495,6.56318 v 6.75095 l 6.05216,3.42895 c 3.32834,1.8864 6.11635,3.42975 6.19556,3.42975 0.0785,0 0.14342,-3.11046 0.14342,-6.91257 z m 12.53216,2.13834 3.8021,-2.08447 v -6.70421 c 0,-3.68724 -0.15211,-6.7042 -0.33671,-6.7042 -0.18539,0 -2.97339,1.43639 -6.19557,3.19206 l -5.85886,3.19287 v 6.99417 6.99497 l 2.39346,-1.39837 c 1.31675,-0.76849 4.10476,-2.33561 6.19558,-3.48282 z m -55.35337,-18.87034 c 0.004,-0.15529 -1.19585,-0.92219 -2.66473,-1.70418 -1.468872,-0.78197 -4.191353,-2.25639 -6.050025,-3.27683 l -3.379436,-1.85392 -6.123392,3.35289 -6.123393,3.35369 2.462381,1.40154 c 1.354233,0.77166 4.109834,2.29283 6.123393,3.38221 l 3.661011,1.97989 6.044161,-3.17703 c 3.3243,-1.74774 6.04686,-3.30377 6.05003,-3.45826 z m 56.21535,0.0888 c 0.15212,-0.45555 -10.58475,-6.84444 -11.503,-6.84444 -0.40405,0 -10.26389,5.53402 -11.34295,6.36591 -0.52924,0.40801 0.89447,1.41579 5.33279,3.77281 l 6.05453,3.21504 5.64257,-2.99401 c 3.10333,-1.64634 5.7202,-3.22851 5.81606,-3.51531 z m -41.67906,-26.03804 -0.15845,-6.80719 -5.49995,-3.04787 c -3.0249,-1.67558 -5.78993,-3.108958 -6.14566,-3.18486 -0.68214,-0.145857 -1.09175,12.07652 -0.43971,13.13104 0.3692,0.59739 11.2677,6.71688 11.96172,6.71688 0.24165,0 0.36841,-3.06371 0.28205,-6.808 z m 10.26152,3.55098 5.91431,-3.23248 0.0269,-6.46653 c 0.015,-3.5573 -0.0579,-6.647156 -0.16083,-6.867567 -0.16718,-0.356601 -2.19301,0.646891 -10.00482,4.956617 l -2.25322,1.24307 -0.15765,6.81196 c -0.0871,3.74665 0.0396,6.80641 0.28124,6.80008 0.24243,-0.007 3.10095,-1.4673 6.35403,-3.24515 z m -2.5123,-16.8327 c 4.73541,-2.557455 5.78041,-3.338555 5.20444,-3.889423 -0.39614,-0.379023 -3.08195,-1.945978 -5.96819,-3.482036 l -5.24642,-2.792838 -5.59741,3.080196 c -3.07877,1.694035 -5.71545,3.270262 -5.85885,3.502714 -0.1957,0.3158 10.58554,6.723617 11.39445,6.772738 0.08,0.0047 2.81256,-1.431239 6.07198,-3.191351 z"
     id="path2"
     inkscape:connector-curvature="0"
     style="fill:#33c1ff;stroke-width:0.79227215;fill-opacity:1" />
</svg>
