<svg width="1440" height="1024" viewBox="0 0 1440 1024" fill="none" xmlns="http://www.w3.org/2000/svg">
<path d="M0 0H1440V1024H0V0Z" fill="#052437"/>
<mask id="mask0" mask-type="alpha" maskUnits="userSpaceOnUse" x="0" y="0" width="1440" height="1024">
<path d="M476.056 655.901L458.028 645.5L459.473 643L478.945 654.234V677.538L478.223 677.976L460.195 688.377V708.361L477.514 718.354L495.556 707.945L497 710.445L477.514 721.687L458.751 710.862L439.444 722L438 719.5L457.292 708.369V688.385L438 677.255L439.444 674.755L458.737 685.885L476.056 675.893V655.901Z" fill="#0A2733"/>
<path d="M644.914 846.205L658.828 860.774L653.617 880.22L634.222 885.456L618.454 869.628L616.405 871.685L632.173 887.513L626.965 906.95L606.997 912.34L591.319 896.603L568.726 902.703L563.083 923.761L543.712 928.991L528.977 914.2L526.928 916.257L542.843 932.233L565.424 926.137L571.087 905.073L590.45 899.845L606.219 915.673L606.376 915.515L627.727 909.751L643.063 925.146L664.849 919.264L664.103 916.458L643.932 921.904L629.776 907.694L634.984 888.258L655.14 882.816L655.98 882.584L662.047 859.941L647.006 844.192L644.914 846.205Z" fill="#0A2733"/>
<path d="M305.588 654.294L286.415 660.475L281.733 680.055L296.291 693.898L317.695 687.493L318.517 690.278L297.113 696.683L292.433 716.253L307.422 730.505L328.703 724.137L345.663 740.263L340.592 761.466L355.133 775.292L375.134 769.307L375.956 772.092L354.353 778.557L337.403 762.44L342.458 741.222L327.922 727.402L306.518 733.807L306.455 733.593L290.429 718.354L269.611 724.584L253.257 709.034L255.25 706.922L270.392 721.319L289.607 715.569L294.287 695.999L279.157 681.613L278.529 681.009L283.981 658.209L304.708 651.527L305.588 654.294Z" fill="#0A2733"/>
<path d="M580.818 750.83L560.728 745.635L546.412 759.95L551.82 780.861L535.123 797.558L512.013 791.582L512.79 788.778L534.291 794.339L548.6 780.029L543.208 759.102L559.895 742.415L581.596 748.027L580.818 750.83Z" fill="#0A2733"/>
<path d="M586.501 575.702L568.201 586.309L566.741 583.769L586.506 572.312L606.979 584.132L606.938 607.841L588.599 618.471L588.566 637.946L606.119 648.08L623.562 637.969L623.598 616.62L626.528 616.615L626.491 637.782L644.037 647.912L661.617 637.722L661.653 616.571L664.583 616.566L664.544 639.412L645.635 650.372L645.595 673.189L642.666 673.194L642.705 650.559L625.159 640.429L606.094 651.459L585.634 639.646L585.673 616.8L585.717 616.8L585.698 616.767L604.011 606.152L604.046 585.832L586.501 575.702Z" fill="#0A2733"/>
<path d="M153.912 934.462L168.894 949.392L166.819 951.46L150.637 935.333L156.755 912.5L179.667 906.402L194.681 921.365L213.501 916.357L218.747 896.779L204.466 882.547L183.835 888.038L183.072 885.209L203.527 879.766L208.771 860.196L194.378 845.853L173.938 851.292L173.175 848.464L195.252 842.588L210.733 858.017L232.783 852.149L233.546 854.977L211.672 860.798L206.429 880.368L222.017 895.929L215.902 918.749L193.824 924.624L193.813 924.581L193.786 924.609L178.792 909.667L159.156 914.892L153.912 934.462Z" fill="#0A2733"/>
<path d="M380.459 884.67V864.42L397.784 854.357L415.11 864.42V885.385H418V862.741L397.784 851L377.569 862.741V885.369H377.576V905.619L360.242 915.687L342.89 905.609V884.66H340V907.288L359.493 918.609L360.242 919L360.973 918.62L380.466 907.298V884.67H380.459Z" fill="#0A2733"/>
<path d="M127 687.51L145.167 697.952V719.676L145.922 720.116L164.089 730.558V750.622L146.636 760.653L128.456 750.203L127 752.713L146.636 764L167 752.295V728.884L148.078 718.008V696.279L128.456 685L127 687.51Z" fill="#0A2733"/>
<path d="M720 693.13L712.338 700.821L691.35 695.197L675.377 711.231L677.424 713.287L692.213 698.442L713.196 704.064L713.816 703.448L720 697.241V693.13Z" fill="#0A2733"/>
<path d="M0 697.241L8.6047 688.603L27.9848 693.796L33.1577 713.251L18.3581 728.107L20.4059 730.163L36.3903 714.117L30.3546 691.417L7.74186 685.358L0 693.13V697.241Z" fill="#0A2733"/>
<path d="M536.292 512V528.369L517 539.5L518.444 542L537.751 530.862L556.514 541.687L576 530.445L574.556 527.945L556.514 538.354L539.195 528.361V512H536.292Z" fill="#0A2733"/>
<path d="M537.028 977.5L555.056 987.901V1007.89L537.737 1017.89L518.444 1006.75L517 1009.25L536.292 1020.39V1024H539.195V1020.38L557.223 1009.98L557.945 1009.54V986.234L538.473 975L537.028 977.5Z" fill="#0A2733"/>
<path d="M633.004 998.597L612.775 1004.06L612.029 1001.26L633.88 995.355L649.244 1010.72L670.315 1005.03L686.869 1021.58L686.217 1024H683.211L683.627 1022.46L669.44 1008.27L649.211 1013.73L648.365 1013.96L633.004 998.597Z" fill="#0A2733"/>
<path d="M683.211 512L678.38 529.894L658.135 535.361L658.88 538.165L680.746 532.261L686.217 512H683.211Z" fill="#0A2733"/>
<path d="M293.779 512L302.741 527.431H325.369V527.424H345.619L355.687 544.758L345.609 562.11H324.66V565H347.288L358.609 545.507L359 544.758L358.619 544.027L347.298 524.534H324.67V524.541H304.42L297.136 512H293.779Z" fill="#0A2733"/>
<path d="M297.136 1024L294.357 1019.22L304.42 1001.89H325.385V999H302.741L291 1019.22L293.779 1024H297.136Z" fill="#0A2733"/>
<path d="M220.372 1024L226.732 1012.94L215.832 994.056L225.832 976.661L246.709 976.7L246.703 973.796L224.153 973.754L212.497 994.031L223.387 1012.93L217.023 1024H220.372Z" fill="#0A2733"/>
<path d="M217.023 512L213.391 518.319L191.049 518.276L191.049 518.499L180.028 537.672L158.298 537.631L147.052 557.195L149.564 558.652L159.977 540.538L180.033 540.576L190.095 558.003L179.69 576.102L179.26 576.86L190.981 597.162L212.753 597.662L212.809 594.759L192.669 594.297L182.603 576.862L192.615 559.445L214.957 559.487L214.951 556.584L192.609 556.542L182.548 539.115L192.856 521.183L215.069 521.225L220.372 512H217.023Z" fill="#0A2733"/>
<path d="M40.4676 1010.54L50.6862 992.476L48.1796 991L37.1423 1010.51L44.8846 1023.92H48.1931L40.4676 1010.54Z" fill="#0A2733"/>
<path d="M44.9315 512L48.9419 518.946L70.551 519.154L80.6696 536.68L69.7341 556.008L72.2407 557.484L83.9949 536.709L72.1885 516.259L50.5902 516.071L48.24 512H44.9315Z" fill="#0A2733"/>
<path d="M0 584.195H15.6228L26.0236 602.223L26.4617 602.945H49.7659L61 583.473L58.5 582.028L48.0992 600.056H28.1069L18.1148 582.737L29.2453 563.444L26.7453 562L15.6148 581.292H0V584.195Z" fill="#0A2733"/>
<path d="M720 581.292H715.63L704.5 562L702 563.444L713.138 582.751L702.313 601.514L713.555 621L716.055 619.556L705.646 601.514L715.639 584.195H720V581.292Z" fill="#0A2733"/>
<path d="M0 873.126L4.8884 874.422L20.8884 858.422L20.8835 858.417L35.2027 844.098L54.5693 849.234L59.7048 868.6L44.8802 883.425L46.9237 885.468L62.9351 869.457L56.943 846.86L34.3461 840.868L18.3461 856.868L18.351 856.873L4.0318 871.192L0 870.123V873.126Z" fill="#0A2733"/>
<path d="M719.718 870.123L704.374 866.054L699.23 846.658L714.044 831.845L712 829.801L696 845.801L701.778 867.591L702.031 868.396L702.817 868.644L719.718 873.126V870.123Z" fill="#0A2733"/>
<path d="M437.613 981.278L452.192 966.604L450.161 964.56L434.414 980.41L440.446 1002.92L461.229 1008.58L465.361 1024H468.327L463.566 1006.23L442.787 1000.59L437.613 981.278Z" fill="#0A2733"/>
<path d="M465.361 512L466.402 515.884L450.8 531.587L452.831 533.631L469.601 516.752L468.327 512H465.361Z" fill="#0A2733"/>
<path d="M476.056 143.901L458.028 133.5L459.473 131L478.945 142.234V165.538L478.223 165.976L460.195 176.377V196.361L477.514 206.354L495.556 195.945L497 198.445L477.514 209.687L458.751 198.861L439.444 210L438 207.5L457.292 196.369V176.385L438 165.255L439.444 162.755L458.737 173.885L476.056 163.893V143.901Z" fill="#0A2733"/>
<path d="M644.914 334.205L658.828 348.774L653.617 368.22L634.222 373.456L618.454 357.628L616.405 359.685L632.173 375.513L626.965 394.95L606.997 400.34L591.319 384.603L568.726 390.703L563.083 411.761L543.712 416.991L528.977 402.2L526.928 404.257L542.843 420.233L565.424 414.137L571.087 393.073L590.45 387.845L606.219 403.673L606.376 403.515L627.727 397.751L643.063 413.146L664.849 407.264L664.103 404.458L643.932 409.904L629.776 395.694L634.984 376.258L655.14 370.816L655.98 370.585L662.047 347.941L647.006 332.192L644.914 334.205Z" fill="#0A2733"/>
<path d="M305.588 142.294L286.415 148.475L281.733 168.055L296.291 181.898L317.695 175.493L318.517 178.278L297.113 184.683L292.433 204.253L307.422 218.505L328.703 212.137L345.663 228.263L340.592 249.466L355.133 263.292L375.134 257.307L375.956 260.092L354.353 266.557L337.403 250.44L342.458 229.222L327.922 215.402L306.518 221.807L306.455 221.593L290.429 206.354L269.611 212.584L253.257 197.034L255.25 194.922L270.392 209.319L289.607 203.569L294.287 183.999L279.157 169.613L278.529 169.009L283.981 146.209L304.708 139.527L305.588 142.294Z" fill="#0A2733"/>
<path d="M580.818 238.83L560.728 233.635L546.412 247.95L551.82 268.861L535.123 285.558L512.013 279.582L512.79 276.778L534.291 282.339L548.6 268.029L543.208 247.102L559.895 230.415L581.596 236.027L580.818 238.83Z" fill="#0A2733"/>
<path d="M586.501 63.7017L568.201 74.3086L566.741 71.7691L586.506 60.3123L606.979 72.1319L606.938 95.8413L588.599 106.471L588.566 125.946L606.119 136.08L623.562 125.969L623.598 104.62L626.528 104.615L626.491 125.782L644.037 135.912L661.617 125.722L661.653 104.571L664.583 104.566L664.544 127.412L645.635 138.372L645.595 161.189L642.666 161.194L642.705 138.559L625.159 128.429L606.094 139.459L585.634 127.646L585.673 104.8L585.717 104.8L585.698 104.767L604.011 94.1516L604.046 73.8316L586.501 63.7017Z" fill="#0A2733"/>
<path d="M153.912 422.462L168.894 437.392L166.819 439.46L150.637 423.333L156.755 400.5L179.667 394.402L194.681 409.365L213.501 404.357L218.747 384.779L204.466 370.547L183.835 376.038L183.072 373.209L203.527 367.766L208.771 348.196L194.378 333.853L173.938 339.292L173.175 336.464L195.252 330.588L210.733 346.017L232.783 340.149L233.546 342.977L211.672 348.798L206.429 368.368L222.017 383.929L215.902 406.749L193.824 412.624L193.813 412.581L193.786 412.609L178.792 397.667L159.156 402.892L153.912 422.462Z" fill="#0A2733"/>
<path d="M380.459 372.67V352.42L397.784 342.357L415.11 352.42V373.385H418V350.741L397.784 339L377.569 350.741V373.369H377.576V393.619L360.242 403.687L342.89 393.609V372.66H340V395.288L359.493 406.609L360.242 407L360.973 406.62L380.466 395.298V372.67H380.459Z" fill="#0A2733"/>
<path d="M127 175.51L145.167 185.952V207.676L145.922 208.116L164.089 218.558V238.621L146.636 248.653L128.456 238.203L127 240.713L146.636 252L167 240.295V216.884L148.078 206.008V184.279L128.456 173L127 175.51Z" fill="#0A2733"/>
<path d="M720 181.13L712.338 188.821L691.35 183.197L675.377 199.231L677.424 201.287L692.213 186.442L713.196 192.064L713.816 191.448L720 185.241V181.13Z" fill="#0A2733"/>
<path d="M0 185.241L8.6047 176.603L27.9848 181.796L33.1577 201.251L18.3581 216.107L20.4059 218.163L36.3903 202.117L30.3546 179.417L7.74186 173.358L0 181.13V185.241Z" fill="#0A2733"/>
<path d="M536.292 0V16.3695L517 27.5L518.444 30L537.751 18.8615L556.514 29.687L576 18.4448L574.556 15.9448L556.514 26.3536L539.195 16.3615V0H536.292Z" fill="#0A2733"/>
<path d="M537.028 465.5L555.056 475.901V495.893L537.737 505.885L518.444 494.755L517 497.255L536.292 508.385V512H539.195V508.377L557.223 497.976L557.945 497.538V474.234L538.473 463L537.028 465.5Z" fill="#0A2733"/>
<path d="M633.004 486.597L612.775 492.059L612.029 489.255L633.88 483.355L649.244 498.72L670.315 493.031L686.869 509.585L686.217 512H683.211L683.627 510.46L669.44 496.273L649.211 501.735L648.365 501.958L633.004 486.597Z" fill="#0A2733"/>
<path d="M683.211 0L678.38 17.8945L658.135 23.3607L658.88 26.1647L680.746 20.2609L686.217 0H683.211Z" fill="#0A2733"/>
<path d="M293.779 0L302.741 15.4311H325.369V15.4241H345.619L355.687 32.7584L345.609 50.1101H324.66V53H347.288L358.609 33.5069L359 32.7584L358.619 32.0272L347.298 12.5342H324.67V12.5412H304.42L297.136 0H293.779Z" fill="#0A2733"/>
<path d="M297.136 512L294.357 507.216L304.42 489.89H325.385V487H302.741L291 507.216L293.779 512H297.136Z" fill="#0A2733"/>
<path d="M220.372 512L226.732 500.936L215.832 482.056L225.832 464.661L246.709 464.7L246.703 461.796L224.153 461.754L212.497 482.031L223.387 500.93L217.023 512H220.372Z" fill="#0A2733"/>
<path d="M217.023 0L213.391 6.31863L191.049 6.27649L191.049 6.49943L180.028 25.6723L158.298 25.6314L147.052 45.1954L149.564 46.652L159.977 28.5381L180.033 28.5759L190.095 46.0025L179.69 64.1024L179.26 64.8601L190.981 85.1618L212.753 85.6622L212.809 82.7593L192.669 82.2965L182.603 64.8617L192.615 47.4451L214.957 47.4872L214.951 44.5836L192.609 44.5415L182.548 27.1149L192.856 9.1835L215.069 9.22538L220.372 0H217.023Z" fill="#0A2733"/>
<path d="M40.4676 498.538L50.6862 480.476L48.1796 479L37.1423 498.509L44.8846 511.919H48.1931L40.4676 498.538Z" fill="#0A2733"/>
<path d="M44.9315 0L48.9419 6.94614L70.551 7.15355L80.6696 24.6795L69.7341 44.0082L72.2407 45.4844L83.9949 24.7085L72.1885 4.25926L50.5902 4.07064L48.24 0H44.9315Z" fill="#0A2733"/>
<path d="M0 72.195H15.6228L26.0236 90.2225L26.4617 90.9447H49.7659L61 71.4728L58.5 70.0284L48.0992 88.0559H28.1069L18.1148 70.7367L29.2453 51.4444L26.7453 50L15.6148 69.2923H0V72.195Z" fill="#0A2733"/>
<path d="M720 69.2923H715.63L704.5 50L702 51.4444L713.138 70.7506L702.313 89.5142L713.555 109L716.055 107.556L705.646 89.5142L715.639 72.195H720V69.2923Z" fill="#0A2733"/>
<path d="M0 361.126L4.8884 362.422L20.8884 346.422L20.8835 346.417L35.2027 332.098L54.5693 337.234L59.7048 356.6L44.8802 371.425L46.9237 373.468L62.9351 357.457L56.943 334.86L34.3461 328.868L18.3461 344.868L18.351 344.873L4.0318 359.192L0 358.123V361.126Z" fill="#0A2733"/>
<path d="M719.718 358.123L704.374 354.054L699.23 334.658L714.044 319.845L712 317.801L696 333.801L701.778 355.591L702.031 356.396L702.817 356.644L719.718 361.126V358.123Z" fill="#0A2733"/>
<path d="M437.613 469.278L452.192 454.604L450.161 452.56L434.414 468.41L440.446 490.92L461.229 496.58L465.361 512H468.327L463.566 494.229L442.787 488.589L437.613 469.278Z" fill="#0A2733"/>
<path d="M465.361 0L466.402 3.88359L450.8 19.5873L452.831 21.6313L469.601 4.75191L468.327 0H465.361Z" fill="#0A2733"/>
<path d="M1196.06 655.901L1178.03 645.5L1179.47 643L1198.94 654.234V677.538L1198.22 677.976L1180.2 688.377V708.361L1197.51 718.354L1215.56 707.945L1217 710.445L1197.51 721.687L1178.75 710.862L1159.44 722L1158 719.5L1177.29 708.369L1177.29 688.385L1158 677.255L1159.44 674.755L1178.74 685.885L1196.06 675.893V655.901Z" fill="#0A2733"/>
<path d="M1364.91 846.205L1378.83 860.774L1373.62 880.22L1354.22 885.456L1338.45 869.628L1336.4 871.685L1352.17 887.513L1346.96 906.95L1327 912.34L1311.32 896.603L1288.73 902.703L1283.08 923.761L1263.71 928.991L1248.98 914.2L1246.93 916.257L1262.84 932.233L1285.42 926.137L1291.09 905.073L1310.45 899.845L1326.22 915.673L1326.38 915.515L1347.73 909.751L1363.06 925.146L1384.85 919.264L1384.1 916.458L1363.93 921.904L1349.78 907.694L1354.98 888.258L1375.14 882.816L1375.98 882.584L1382.05 859.941L1367.01 844.192L1364.91 846.205Z" fill="#0A2733"/>
<path d="M1025.59 654.294L1006.41 660.475L1001.73 680.055L1016.29 693.898L1037.7 687.493L1038.52 690.278L1017.11 696.683L1012.43 716.253L1027.42 730.505L1048.7 724.137L1065.66 740.263L1060.59 761.466L1075.13 775.292L1095.13 769.307L1095.96 772.092L1074.35 778.557L1057.4 762.44L1062.46 741.222L1047.92 727.402L1026.52 733.807L1026.46 733.593L1010.43 718.354L989.611 724.584L973.257 709.034L975.25 706.922L990.392 721.319L1009.61 715.569L1014.29 695.999L999.157 681.613L998.529 681.009L1003.98 658.209L1024.71 651.527L1025.59 654.294Z" fill="#0A2733"/>
<path d="M1300.82 750.83L1280.73 745.635L1266.41 759.95L1271.82 780.861L1255.12 797.558L1232.01 791.582L1232.79 788.778L1254.29 794.339L1268.6 780.029L1263.21 759.102L1279.9 742.415L1301.6 748.027L1300.82 750.83Z" fill="#0A2733"/>
<path d="M1306.5 575.702L1288.2 586.309L1286.74 583.769L1306.51 572.312L1326.98 584.132L1326.94 607.841L1308.6 618.471L1308.57 637.946L1326.12 648.08L1343.56 637.969L1343.6 616.62L1346.53 616.615L1346.49 637.782L1364.04 647.912L1381.62 637.722L1381.65 616.571L1384.58 616.566L1384.54 639.412L1365.63 650.372L1365.6 673.189L1362.67 673.194L1362.7 650.559L1345.16 640.429L1326.09 651.459L1305.63 639.646L1305.67 616.8L1305.72 616.8L1305.7 616.767L1324.01 606.152L1324.05 585.832L1306.5 575.702Z" fill="#0A2733"/>
<path d="M873.912 934.462L888.894 949.392L886.819 951.46L870.637 935.333L876.755 912.5L899.667 906.402L914.681 921.365L933.501 916.357L938.747 896.779L924.466 882.547L903.835 888.038L903.072 885.209L923.527 879.766L928.771 860.196L914.378 845.853L893.938 851.292L893.175 848.464L915.252 842.588L930.733 858.017L952.783 852.149L953.546 854.977L931.672 860.798L926.429 880.368L942.017 895.929L935.902 918.749L913.824 924.624L913.813 924.581L913.786 924.609L898.792 909.667L879.156 914.892L873.912 934.462Z" fill="#0A2733"/>
<path d="M1100.46 884.67V864.42L1117.78 854.357L1135.11 864.42V885.385H1138V862.741L1117.78 851L1097.57 862.741V885.369H1097.58V905.619L1080.24 915.687L1062.89 905.609V884.66H1060V907.288L1079.49 918.609L1080.24 919L1080.97 918.62L1100.47 907.298V884.67H1100.46Z" fill="#0A2733"/>
<path d="M847 687.51L865.167 697.952V719.676L865.922 720.116L884.089 730.558V750.622L866.636 760.653L848.456 750.203L847 752.713L866.636 764L887 752.295V728.884L868.078 718.008V696.279L848.456 685L847 687.51Z" fill="#0A2733"/>
<path d="M1440 693.13L1432.34 700.821L1411.35 695.197L1395.38 711.231L1397.42 713.287L1412.21 698.442L1433.2 704.064L1433.82 703.448L1440 697.241V693.13Z" fill="#0A2733"/>
<path d="M720 697.241L728.605 688.603L747.985 693.796L753.158 713.251L738.358 728.107L740.406 730.163L756.39 714.117L750.355 691.417L727.742 685.358L720 693.13V697.241Z" fill="#0A2733"/>
<path d="M1256.29 512V528.369L1237 539.5L1238.44 542L1257.75 530.862L1276.51 541.687L1296 530.445L1294.56 527.945L1276.51 538.354L1259.2 528.361V512H1256.29Z" fill="#0A2733"/>
<path d="M1257.03 977.5L1275.06 987.901V1007.89L1257.74 1017.89L1238.44 1006.75L1237 1009.25L1256.29 1020.39V1024H1259.2V1020.38L1277.22 1009.98L1277.94 1009.54V986.234L1258.47 975L1257.03 977.5Z" fill="#0A2733"/>
<path d="M1353 998.597L1332.77 1004.06L1332.03 1001.26L1353.88 995.355L1369.24 1010.72L1390.32 1005.03L1406.87 1021.58L1406.22 1024H1403.21L1403.63 1022.46L1389.44 1008.27L1369.21 1013.73L1368.37 1013.96L1353 998.597Z" fill="#0A2733"/>
<path d="M1403.21 512L1398.38 529.894L1378.13 535.361L1378.88 538.165L1400.75 532.261L1406.22 512H1403.21Z" fill="#0A2733"/>
<path d="M1013.78 512L1022.74 527.431H1045.37V527.424H1065.62L1075.69 544.758L1065.61 562.11H1044.66V565H1067.29L1078.61 545.507L1079 544.758L1078.62 544.027L1067.3 524.534H1044.67V524.541H1024.42L1017.14 512H1013.78Z" fill="#0A2733"/>
<path d="M1017.14 1024L1014.36 1019.22L1024.42 1001.89H1045.39V999H1022.74L1011 1019.22L1013.78 1024H1017.14Z" fill="#0A2733"/>
<path d="M940.372 1024L946.732 1012.94L935.832 994.056L945.832 976.661L966.709 976.7L966.703 973.796L944.153 973.754L932.497 994.031L943.387 1012.93L937.023 1024H940.372Z" fill="#0A2733"/>
<path d="M937.023 512L933.391 518.319L911.049 518.276L911.049 518.499L900.028 537.672L878.298 537.631L867.052 557.195L869.564 558.652L879.977 540.538L900.033 540.576L910.095 558.003L899.69 576.102L899.26 576.86L910.981 597.162L932.753 597.662L932.809 594.759L912.669 594.297L902.603 576.862L912.615 559.445L934.957 559.487L934.951 556.584L912.609 556.542L902.548 539.115L912.856 521.183L935.069 521.225L940.372 512H937.023Z" fill="#0A2733"/>
<path d="M760.468 1010.54L770.686 992.476L768.18 991L757.142 1010.51L764.885 1023.92H768.193L760.468 1010.54Z" fill="#0A2733"/>
<path d="M764.932 512L768.942 518.946L790.551 519.154L800.67 536.68L789.734 556.008L792.241 557.484L803.995 536.709L792.189 516.259L770.59 516.071L768.24 512H764.932Z" fill="#0A2733"/>
<path d="M720 584.195H735.623L746.024 602.223L746.462 602.945H769.766L781 583.473L778.5 582.028L768.099 600.056H748.107L738.115 582.737L749.245 563.444L746.745 562L735.615 581.292H720V584.195Z" fill="#0A2733"/>
<path d="M1440 581.292H1435.63L1424.5 562L1422 563.444L1433.14 582.751L1422.31 601.514L1433.56 621L1436.06 619.556L1425.65 601.514L1435.64 584.195H1440V581.292Z" fill="#0A2733"/>
<path d="M720 873.126L724.888 874.422L740.888 858.422L740.883 858.417L755.203 844.098L774.569 849.234L779.705 868.6L764.88 883.425L766.924 885.468L782.935 869.457L776.943 846.86L754.346 840.868L738.346 856.868L738.351 856.873L724.032 871.192L720 870.123V873.126Z" fill="#0A2733"/>
<path d="M1439.72 870.123L1424.37 866.054L1419.23 846.658L1434.04 831.845L1432 829.801L1416 845.801L1421.78 867.591L1422.03 868.396L1422.82 868.644L1439.72 873.126V870.123Z" fill="#0A2733"/>
<path d="M1157.61 981.278L1172.19 966.604L1170.16 964.56L1154.41 980.41L1160.45 1002.92L1181.23 1008.58L1185.36 1024H1188.33L1183.57 1006.23L1162.79 1000.59L1157.61 981.278Z" fill="#0A2733"/>
<path d="M1185.36 512L1186.4 515.884L1170.8 531.587L1172.83 533.631L1189.6 516.752L1188.33 512H1185.36Z" fill="#0A2733"/>
<path d="M1196.06 143.901L1178.03 133.5L1179.47 131L1198.94 142.234V165.538L1198.22 165.976L1180.2 176.377V196.361L1197.51 206.354L1215.56 195.945L1217 198.445L1197.51 209.687L1178.75 198.861L1159.44 210L1158 207.5L1177.29 196.369L1177.29 176.385L1158 165.255L1159.44 162.755L1178.74 173.885L1196.06 163.893V143.901Z" fill="#0A2733"/>
<path d="M1364.91 334.205L1378.83 348.774L1373.62 368.22L1354.22 373.456L1338.45 357.628L1336.4 359.685L1352.17 375.513L1346.96 394.95L1327 400.34L1311.32 384.603L1288.73 390.703L1283.08 411.761L1263.71 416.991L1248.98 402.2L1246.93 404.257L1262.84 420.233L1285.42 414.137L1291.09 393.073L1310.45 387.845L1326.22 403.673L1326.38 403.515L1347.73 397.751L1363.06 413.146L1384.85 407.264L1384.1 404.458L1363.93 409.904L1349.78 395.694L1354.98 376.258L1375.14 370.816L1375.98 370.585L1382.05 347.941L1367.01 332.192L1364.91 334.205Z" fill="#0A2733"/>
<path d="M1025.59 142.294L1006.41 148.475L1001.73 168.055L1016.29 181.898L1037.7 175.493L1038.52 178.278L1017.11 184.683L1012.43 204.253L1027.42 218.505L1048.7 212.137L1065.66 228.263L1060.59 249.466L1075.13 263.292L1095.13 257.307L1095.96 260.092L1074.35 266.557L1057.4 250.44L1062.46 229.222L1047.92 215.402L1026.52 221.807L1026.46 221.593L1010.43 206.354L989.611 212.584L973.257 197.034L975.25 194.922L990.392 209.319L1009.61 203.569L1014.29 183.999L999.157 169.613L998.529 169.009L1003.98 146.209L1024.71 139.527L1025.59 142.294Z" fill="#0A2733"/>
<path d="M1300.82 238.83L1280.73 233.635L1266.41 247.95L1271.82 268.861L1255.12 285.558L1232.01 279.582L1232.79 276.778L1254.29 282.339L1268.6 268.029L1263.21 247.102L1279.9 230.415L1301.6 236.027L1300.82 238.83Z" fill="#0A2733"/>
<path d="M1306.5 63.7017L1288.2 74.3086L1286.74 71.7691L1306.51 60.3123L1326.98 72.1319L1326.94 95.8413L1308.6 106.471L1308.57 125.946L1326.12 136.08L1343.56 125.969L1343.6 104.62L1346.53 104.615L1346.49 125.782L1364.04 135.912L1381.62 125.722L1381.65 104.571L1384.58 104.566L1384.54 127.412L1365.63 138.372L1365.6 161.189L1362.67 161.194L1362.7 138.559L1345.16 128.429L1326.09 139.459L1305.63 127.646L1305.67 104.8L1305.72 104.8L1305.7 104.767L1324.01 94.1516L1324.05 73.8316L1306.5 63.7017Z" fill="#0A2733"/>
<path d="M873.912 422.462L888.894 437.392L886.819 439.46L870.637 423.333L876.755 400.5L899.667 394.402L914.681 409.365L933.501 404.357L938.747 384.779L924.466 370.547L903.835 376.038L903.072 373.209L923.527 367.766L928.771 348.196L914.378 333.853L893.938 339.292L893.175 336.464L915.252 330.588L930.733 346.017L952.783 340.149L953.546 342.977L931.672 348.798L926.429 368.368L942.017 383.929L935.902 406.749L913.824 412.624L913.813 412.581L913.786 412.609L898.792 397.667L879.156 402.892L873.912 422.462Z" fill="#0A2733"/>
<path d="M1100.46 372.67V352.42L1117.78 342.357L1135.11 352.42V373.385H1138V350.741L1117.78 339L1097.57 350.741V373.369H1097.58V393.619L1080.24 403.687L1062.89 393.609V372.66H1060V395.288L1079.49 406.609L1080.24 407L1080.97 406.62L1100.47 395.298V372.67H1100.46Z" fill="#0A2733"/>
<path d="M847 175.51L865.167 185.952V207.676L865.922 208.116L884.089 218.558V238.621L866.636 248.653L848.456 238.203L847 240.713L866.636 252L887 240.295V216.884L868.078 206.008V184.279L848.456 173L847 175.51Z" fill="#0A2733"/>
<path d="M1440 181.13L1432.34 188.821L1411.35 183.197L1395.38 199.231L1397.42 201.287L1412.21 186.442L1433.2 192.064L1433.82 191.448L1440 185.241V181.13Z" fill="#0A2733"/>
<path d="M720 185.241L728.605 176.603L747.985 181.796L753.158 201.251L738.358 216.107L740.406 218.163L756.39 202.117L750.355 179.417L727.742 173.358L720 181.13V185.241Z" fill="#0A2733"/>
<path d="M1256.29 0V16.3695L1237 27.5L1238.44 30L1257.75 18.8615L1276.51 29.687L1296 18.4448L1294.56 15.9448L1276.51 26.3536L1259.2 16.3615V0H1256.29Z" fill="#0A2733"/>
<path d="M1257.03 465.5L1275.06 475.901V495.893L1257.74 505.885L1238.44 494.755L1237 497.255L1256.29 508.385V512H1259.2V508.377L1277.22 497.976L1277.94 497.538V474.234L1258.47 463L1257.03 465.5Z" fill="#0A2733"/>
<path d="M1353 486.597L1332.77 492.059L1332.03 489.255L1353.88 483.355L1369.24 498.72L1390.32 493.031L1406.87 509.585L1406.22 512H1403.21L1403.63 510.46L1389.44 496.273L1369.21 501.735L1368.37 501.958L1353 486.597Z" fill="#0A2733"/>
<path d="M1403.21 0L1398.38 17.8945L1378.13 23.3607L1378.88 26.1647L1400.75 20.2609L1406.22 0H1403.21Z" fill="#0A2733"/>
<path d="M1013.78 0L1022.74 15.4311H1045.37V15.4241H1065.62L1075.69 32.7584L1065.61 50.1101H1044.66V53H1067.29L1078.61 33.5069L1079 32.7584L1078.62 32.0272L1067.3 12.5342H1044.67V12.5412H1024.42L1017.14 0H1013.78Z" fill="#0A2733"/>
<path d="M1017.14 512L1014.36 507.216L1024.42 489.89H1045.39V487H1022.74L1011 507.216L1013.78 512H1017.14Z" fill="#0A2733"/>
<path d="M940.372 512L946.732 500.936L935.832 482.056L945.832 464.661L966.709 464.7L966.703 461.796L944.153 461.754L932.497 482.031L943.387 500.93L937.023 512H940.372Z" fill="#0A2733"/>
<path d="M937.023 0L933.391 6.31863L911.049 6.27649L911.049 6.49943L900.028 25.6723L878.298 25.6314L867.052 45.1954L869.564 46.652L879.977 28.5381L900.033 28.5759L910.095 46.0025L899.69 64.1024L899.26 64.8601L910.981 85.1618L932.753 85.6622L932.809 82.7593L912.669 82.2965L902.603 64.8617L912.615 47.4451L934.957 47.4872L934.951 44.5836L912.609 44.5415L902.548 27.1149L912.856 9.1835L935.069 9.22538L940.372 0H937.023Z" fill="#0A2733"/>
<path d="M760.468 498.538L770.686 480.476L768.18 479L757.142 498.509L764.885 511.919H768.193L760.468 498.538Z" fill="#0A2733"/>
<path d="M764.932 0L768.942 6.94614L790.551 7.15355L800.67 24.6795L789.734 44.0082L792.241 45.4844L803.995 24.7085L792.189 4.25926L770.59 4.07064L768.24 0H764.932Z" fill="#0A2733"/>
<path d="M720 72.195H735.623L746.024 90.2225L746.462 90.9447H769.766L781 71.4728L778.5 70.0284L768.099 88.0559H748.107L738.115 70.7367L749.245 51.4444L746.745 50L735.615 69.2923H720V72.195Z" fill="#0A2733"/>
<path d="M1440 69.2923H1435.63L1424.5 50L1422 51.4444L1433.14 70.7506L1422.31 89.5142L1433.56 109L1436.06 107.556L1425.65 89.5142L1435.64 72.195H1440V69.2923Z" fill="#0A2733"/>
<path d="M720 361.126L724.888 362.422L740.888 346.422L740.883 346.417L755.203 332.098L774.569 337.234L779.705 356.6L764.88 371.425L766.924 373.468L782.935 357.457L776.943 334.86L754.346 328.868L738.346 344.868L738.351 344.873L724.032 359.192L720 358.123V361.126Z" fill="#0A2733"/>
<path d="M1439.72 358.123L1424.37 354.054L1419.23 334.658L1434.04 319.845L1432 317.801L1416 333.801L1421.78 355.591L1422.03 356.396L1422.82 356.644L1439.72 361.126V358.123Z" fill="#0A2733"/>
<path d="M1157.61 469.278L1172.19 454.604L1170.16 452.56L1154.41 468.41L1160.45 490.92L1181.23 496.58L1185.36 512H1188.33L1183.57 494.229L1162.79 488.589L1157.61 469.278Z" fill="#0A2733"/>
<path d="M1185.36 0L1186.4 3.88359L1170.8 19.5873L1172.83 21.6313L1189.6 4.75191L1188.33 0H1185.36Z" fill="#0A2733"/>
</mask>
<g mask="url(#mask0)">
<g style="mix-blend-mode:hard-light" opacity="0.4">
<path d="M0 0H1440V1024H0V0Z" fill="url(#paint0_linear)"/>
</g>
</g>
<defs>
<linearGradient id="paint0_linear" x1="720" y1="58.5" x2="720" y2="1024" gradientUnits="userSpaceOnUse">
<stop stop-color="#33C1FF"/>
<stop offset="1" stop-color="#EDFF86"/>
</linearGradient>
</defs>
</svg>
