<svg width="1440" height="1024" viewBox="0 0 1440 1024" fill="none" xmlns="http://www.w3.org/2000/svg">
<mask id="mask0" mask-type="alpha" maskUnits="userSpaceOnUse" x="0" y="0" width="1440" height="1024">
<path d="M0 0H1440V1024H0V0Z" fill="#052437"/>
</mask>
<g mask="url(#mask0)">
<path d="M1349.5 222.5C1255 -87 1516.09 -133 1516.09 -146.5V1144.58H85C118.159 873.778 379.937 776.254 574.5 845C1024.5 1004 927.5 675.5 1022 535.5C1132.54 371.731 1444 532 1349.5 222.5Z" fill="url(#paint0_radial)"/>
<mask id="mask1" mask-type="alpha" maskUnits="userSpaceOnUse" x="85" y="-147" width="1432" height="1292">
<path d="M1349.5 222.5C1255 -86.9999 1516.09 -133 1516.09 -146.5V1144.58H85C118.159 873.778 379.937 776.255 574.5 845C1024.5 1004 927.5 675.5 1022 535.5C1132.54 371.732 1444 532 1349.5 222.5Z" fill="url(#paint1_radial)"/>
</mask>
<g mask="url(#mask1)">
<path d="M1621.02 718.874C1621.02 714.456 1624.6 710.874 1629.02 710.874C1633.44 710.874 1637.02 714.456 1637.02 718.874C1637.02 723.293 1633.44 726.874 1629.02 726.874C1624.6 726.874 1621.02 723.293 1621.02 718.874Z" fill="#D5E679"/>
<path d="M1346.02 622.874C1346.02 618.456 1349.6 614.874 1354.02 614.874C1358.44 614.874 1362.02 618.456 1362.02 622.874C1362.02 627.293 1358.44 630.874 1354.02 630.874C1349.6 630.874 1346.02 627.293 1346.02 622.874Z" fill="#D5E679"/>
<path d="M1566.02 783.874C1566.02 781.665 1567.81 779.874 1570.02 779.874C1572.23 779.874 1574.02 781.665 1574.02 783.874C1574.02 786.084 1572.23 787.874 1570.02 787.874C1567.81 787.874 1566.02 786.084 1566.02 783.874Z" fill="#D5E679"/>
<path d="M1426.02 227.874C1426.02 225.665 1427.81 223.874 1430.02 223.874C1432.23 223.874 1434.02 225.665 1434.02 227.874C1434.02 230.084 1432.23 231.874 1430.02 231.874C1427.81 231.874 1426.02 230.084 1426.02 227.874Z" fill="#D5E679"/>
<path d="M1081.23 961.904C1084.35 958.78 1089.42 958.78 1092.54 961.904C1095.67 965.028 1095.67 970.093 1092.54 973.218C1089.42 976.342 1084.35 976.342 1081.23 973.218C1078.1 970.093 1078.1 965.028 1081.23 961.904Z" fill="#D5E679"/>
<path d="M954.657 699.567C957.781 696.443 962.847 696.443 965.971 699.567C969.095 702.691 969.095 707.757 965.971 710.881C962.847 714.005 957.781 714.005 954.657 710.881C951.533 707.757 951.533 702.691 954.657 699.567Z" fill="#D5E679"/>
<path d="M996.376 968.975C997.938 967.413 1000.47 967.413 1002.03 968.975C1003.6 970.537 1003.6 973.07 1002.03 974.632C1000.47 976.194 997.938 976.194 996.376 974.632C994.814 973.07 994.814 970.537 996.376 968.975Z" fill="#D5E679"/>
<path d="M1290.53 476.829C1292.1 475.266 1294.63 475.266 1296.19 476.829C1297.75 478.391 1297.75 480.923 1296.19 482.485C1294.63 484.047 1292.1 484.047 1290.53 482.485C1288.97 480.923 1288.97 478.391 1290.53 476.829Z" fill="#D5E679"/>
<path d="M270 721.211C270 716.793 266.418 713.211 262 713.211C257.582 713.211 254 716.793 254 721.211C254 725.629 257.582 729.211 262 729.211C266.418 729.211 270 725.629 270 721.211Z" fill="#D5E679"/>
<path d="M661.361 797.904C658.237 794.78 653.171 794.78 650.047 797.904C646.923 801.028 646.923 806.093 650.047 809.217C653.171 812.342 658.237 812.342 661.361 809.217C664.485 806.093 664.485 801.028 661.361 797.904Z" fill="#D5E679"/>
<path d="M325.485 575.165C323.923 573.603 321.39 573.603 319.828 575.165C318.266 576.727 318.266 579.26 319.828 580.822C321.39 582.384 323.923 582.384 325.485 580.822C327.047 579.26 327.047 576.727 325.485 575.165Z" fill="#D5E679"/>
<path d="M989.018 284C989.018 288.418 992.6 292 997.018 292C1001.44 292 1005.02 288.418 1005.02 284C1005.02 279.582 1001.44 276 997.018 276C992.6 276 989.018 279.582 989.018 284Z" fill="#D5E679"/>
<path d="M714.018 380C714.018 384.418 717.6 388 722.018 388C726.436 388 730.018 384.418 730.018 380C730.018 375.582 726.436 372 722.018 372C717.6 372 714.018 375.582 714.018 380Z" fill="#D5E679"/>
<path d="M934.018 219C934.018 221.209 935.809 223 938.018 223C940.227 223 942.018 221.209 942.018 219C942.018 216.791 940.227 215 938.018 215C935.809 215 934.018 216.791 934.018 219Z" fill="#D5E679"/>
<path d="M278.018 966C278.018 968.209 276.227 970 274.018 970C271.809 970 270.018 968.209 270.018 966C270.018 963.791 271.809 962 274.018 962C276.227 962 278.018 963.791 278.018 966Z" fill="#D5E679"/>
<path d="M715.018 909.874C715.018 905.456 711.436 901.874 707.018 901.874C702.6 901.874 699.018 905.456 699.018 909.874C699.018 914.293 702.6 917.874 707.018 917.874C711.436 917.874 715.018 914.293 715.018 909.874Z" fill="#D5E679"/>
<path d="M770.018 974.874C770.018 972.665 768.227 970.874 766.018 970.874C763.809 970.874 762.018 972.665 762.018 974.874C762.018 977.083 763.809 978.874 766.018 978.874C768.227 978.874 770.018 977.083 770.018 974.874Z" fill="#D5E679"/>
<path d="M322.657 303.307C325.781 306.432 330.847 306.432 333.971 303.307C337.095 300.183 337.095 295.118 333.971 291.994C330.847 288.869 325.781 288.869 322.657 291.994C319.533 295.118 319.533 300.183 322.657 303.307Z" fill="#D5E679"/>
<path d="M658.533 526.046C660.095 527.608 662.628 527.608 664.19 526.046C665.752 524.484 665.752 521.951 664.19 520.389C662.628 518.827 660.095 518.827 658.533 520.389C656.971 521.951 656.971 524.484 658.533 526.046Z" fill="#D5E679"/>
<path d="M1207.57 -174.572C1211.99 -174.572 1215.57 -178.153 1215.57 -182.572C1215.57 -186.99 1211.99 -190.572 1207.57 -190.572C1203.15 -190.572 1199.57 -186.99 1199.57 -182.572C1199.57 -178.153 1203.15 -174.572 1207.57 -174.572Z" fill="#D5E679"/>
<path d="M1303.57 100.428C1307.99 100.428 1311.57 96.8466 1311.57 92.4283C1311.57 88.01 1307.99 84.4283 1303.57 84.4283C1299.15 84.4283 1295.57 88.01 1295.57 92.4283C1295.57 96.8466 1299.15 100.428 1303.57 100.428Z" fill="#D5E679"/>
<path d="M1142.57 -119.572C1144.78 -119.572 1146.57 -121.363 1146.57 -123.572C1146.57 -125.781 1144.78 -127.572 1142.57 -127.572C1140.36 -127.572 1138.57 -125.781 1138.57 -123.572C1138.57 -121.363 1140.36 -119.572 1142.57 -119.572Z" fill="#D5E679"/>
<path d="M1698.57 20.4283C1700.78 20.4283 1702.57 18.6374 1702.57 16.4283C1702.57 14.2192 1700.78 12.4283 1698.57 12.4283C1696.36 12.4283 1694.57 14.2192 1694.57 16.4283C1694.57 18.6374 1696.36 20.4283 1698.57 20.4283Z" fill="#D5E679"/>
<path d="M964.542 365.217C967.667 362.093 967.667 357.028 964.542 353.904C961.418 350.78 956.353 350.78 953.229 353.904C950.104 357.028 950.104 362.093 953.229 365.217C956.353 368.342 961.418 368.342 964.542 365.217Z" fill="#D5E679"/>
<path d="M1226.88 491.789C1230 488.665 1230 483.6 1226.88 480.476C1223.75 477.351 1218.69 477.351 1215.57 480.476C1212.44 483.6 1212.44 488.665 1215.57 491.789C1218.69 494.913 1223.75 494.913 1226.88 491.789Z" fill="#D5E679"/>
<path d="M957.471 450.07C959.033 448.508 959.033 445.975 957.471 444.413C955.909 442.851 953.376 442.851 951.814 444.413C950.252 445.975 950.252 448.508 951.814 450.07C953.376 451.632 955.909 451.632 957.471 450.07Z" fill="#D5E679"/>
<path d="M1449.62 155.913C1451.18 154.351 1451.18 151.819 1449.62 150.257C1448.06 148.694 1445.52 148.694 1443.96 150.257C1442.4 151.819 1442.4 154.351 1443.96 155.913C1445.52 157.476 1448.06 157.476 1449.62 155.913Z" fill="#D5E679"/>
<path d="M1205.24 1176.45C1209.65 1176.45 1213.24 1180.03 1213.24 1184.45C1213.24 1188.86 1209.65 1192.45 1205.24 1192.45C1200.82 1192.45 1197.24 1188.86 1197.24 1184.45C1197.24 1180.03 1200.82 1176.45 1205.24 1176.45Z" fill="#D5E679"/>
<path d="M1128.54 785.085C1131.67 788.21 1131.67 793.275 1128.54 796.399C1125.42 799.523 1120.35 799.523 1117.23 796.399C1114.1 793.275 1114.1 788.21 1117.23 785.085C1120.35 781.961 1125.42 781.961 1128.54 785.085Z" fill="#D5E679"/>
<path d="M1351.28 1120.96C1352.84 1122.52 1352.84 1125.06 1351.28 1126.62C1349.72 1128.18 1347.19 1128.18 1345.62 1126.62C1344.06 1125.06 1344.06 1122.52 1345.62 1120.96C1347.19 1119.4 1349.72 1119.4 1351.28 1120.96Z" fill="#D5E679"/>
<path d="M1642.45 457.428C1638.03 457.428 1634.45 453.847 1634.45 449.428C1634.45 445.01 1638.03 441.428 1642.45 441.428C1646.86 441.428 1650.45 445.01 1650.45 449.428C1650.45 453.847 1646.86 457.428 1642.45 457.428Z" fill="#D5E679"/>
<path d="M1546.45 732.428C1542.03 732.428 1538.45 728.847 1538.45 724.428C1538.45 720.01 1542.03 716.428 1546.45 716.428C1550.86 716.428 1554.45 720.01 1554.45 724.428C1554.45 728.847 1550.86 732.428 1546.45 732.428Z" fill="#D5E679"/>
<path d="M1707.45 512.428C1705.24 512.428 1703.45 510.637 1703.45 508.428C1703.45 506.219 1705.24 504.428 1707.45 504.428C1709.66 504.428 1711.45 506.219 1711.45 508.428C1711.45 510.637 1709.66 512.428 1707.45 512.428Z" fill="#D5E679"/>
<path d="M960.446 1168.43C958.237 1168.43 956.446 1170.22 956.446 1172.43C956.446 1174.64 958.237 1176.43 960.446 1176.43C962.655 1176.43 964.446 1174.64 964.446 1172.43C964.446 1170.22 962.655 1168.43 960.446 1168.43Z" fill="#D5E679"/>
<path d="M1016.57 731.428C1020.99 731.428 1024.57 735.01 1024.57 739.428C1024.57 743.847 1020.99 747.428 1016.57 747.428C1012.15 747.428 1008.57 743.847 1008.57 739.428C1008.57 735.01 1012.15 731.428 1016.57 731.428Z" fill="#D5E679"/>
<path d="M951.572 676.428C953.781 676.428 955.572 678.219 955.572 680.428C955.572 682.637 953.781 684.428 951.572 684.428C949.363 684.428 947.572 682.637 947.572 680.428C947.572 678.219 949.363 676.428 951.572 676.428Z" fill="#D5E679"/>
<path d="M1623.14 1123.79C1620.01 1120.67 1620.01 1115.6 1623.14 1112.48C1626.26 1109.35 1631.33 1109.35 1634.45 1112.48C1637.58 1115.6 1637.58 1120.67 1634.45 1123.79C1631.33 1126.91 1626.26 1126.91 1623.14 1123.79Z" fill="#D5E679"/>
<path d="M1400.4 787.913C1398.84 786.351 1398.84 783.819 1400.4 782.257C1401.96 780.695 1404.49 780.695 1406.06 782.257C1407.62 783.819 1407.62 786.351 1406.06 787.913C1404.49 789.476 1401.96 789.476 1400.4 787.913Z" fill="#D5E679"/>
</g>
</g>
<defs>
<radialGradient id="paint0_radial" cx="0" cy="0" r="1" gradientUnits="userSpaceOnUse" gradientTransform="translate(1170.17 516.499) rotate(118.776) scale(869.36)">
<stop offset="0.0629965" stop-color="#76DF9A"/>
<stop offset="0.920024" stop-color="#216A87"/>
</radialGradient>
<radialGradient id="paint1_radial" cx="0" cy="0" r="1" gradientUnits="userSpaceOnUse" gradientTransform="translate(1170.17 516.499) rotate(118.776) scale(869.36)">
<stop offset="0.0629965" stop-color="#76DF9A"/>
<stop offset="0.920024" stop-color="#216A87"/>
</radialGradient>
</defs>
</svg>
