<svg width="43" height="51" viewBox="0 0 43 51" fill="none" xmlns="http://www.w3.org/2000/svg">
<path d="M30 37H21C19.8954 37 19 37.8954 19 39V48C19 49.1046 19.8954 50 21 50H30C31.1046 50 32 49.1046 32 48V39C32 37.8954 31.1046 37 30 37Z" stroke="#FCFDFE" stroke-width="2" stroke-linecap="round" stroke-linejoin="round"/>
<path d="M15 43H14C13.4696 43 12.9609 42.7893 12.5858 42.4142C12.2107 42.0391 12 41.5304 12 41V32C12 31.4696 12.2107 30.9609 12.5858 30.5858C12.9609 30.2107 13.4696 30 14 30H23C23.5304 30 24.0391 30.2107 24.4142 30.5858C24.7893 30.9609 25 31.4696 25 32V33" stroke="#FCFDFE" stroke-width="2" stroke-linecap="round" stroke-linejoin="round"/>
<rect x="-10" y="-9" width="64" height="26" rx="4" fill="#33C1FF"/>
<path d="M22.7132 20.5262C22.391 21.1579 21.609 21.1579 21.2868 20.5262L14.1186 6.46964C13.7883 5.82192 14.1871 5 14.8318 5L29.1682 5C29.8129 5 30.2117 5.82192 29.8814 6.46964L22.7132 20.5262Z" fill="#33C1FF"/>
<path d="M7.27281 7.152C7.34481 7.152 7.40681 7.18 7.45881 7.236L7.96281 7.788C7.61081 8.204 7.18081 8.526 6.67281 8.754C6.16881 8.982 5.56081 9.096 4.84881 9.096C4.22481 9.096 3.65881 8.988 3.15081 8.772C2.64681 8.556 2.21481 8.254 1.85481 7.866C1.49881 7.478 1.22281 7.014 1.02681 6.474C0.830812 5.934 0.732812 5.34 0.732812 4.692C0.732812 4.044 0.834812 3.45 1.03881 2.91C1.24681 2.37 1.53681 1.906 1.90881 1.518C2.28081 1.13 2.72481 0.827999 3.24081 0.611999C3.76081 0.396 4.33481 0.288 4.96281 0.288C5.57481 0.288 6.11881 0.388 6.59481 0.588C7.07081 0.787999 7.48481 1.054 7.83681 1.386L7.41681 1.98C7.38881 2.024 7.35281 2.06 7.30881 2.088C7.26881 2.116 7.21481 2.13 7.14681 2.13C7.07081 2.13 6.98081 2.092 6.87681 2.016C6.77681 1.94 6.64281 1.856 6.47481 1.764C6.31081 1.668 6.10681 1.582 5.86281 1.506C5.61881 1.43 5.31481 1.392 4.95081 1.392C4.52281 1.392 4.13081 1.468 3.77481 1.62C3.41881 1.768 3.11081 1.984 2.85081 2.268C2.59481 2.548 2.39481 2.894 2.25081 3.306C2.11081 3.714 2.04081 4.176 2.04081 4.692C2.04081 5.216 2.11481 5.682 2.26281 6.09C2.41081 6.498 2.61481 6.844 2.87481 7.128C3.13481 7.412 3.44081 7.628 3.79281 7.776C4.14481 7.924 4.52481 7.998 4.93281 7.998C5.18081 7.998 5.40281 7.984 5.59881 7.956C5.79881 7.924 5.98081 7.878 6.14481 7.818C6.31281 7.758 6.47081 7.682 6.61881 7.59C6.76681 7.494 6.91281 7.38 7.05681 7.248C7.08881 7.22 7.12281 7.198 7.15881 7.182C7.19481 7.162 7.23281 7.152 7.27281 7.152ZM11.9678 2.808C12.4158 2.808 12.8198 2.882 13.1798 3.03C13.5438 3.174 13.8518 3.384 14.1038 3.66C14.3598 3.932 14.5558 4.262 14.6918 4.65C14.8278 5.034 14.8958 5.466 14.8958 5.946C14.8958 6.426 14.8278 6.86 14.6918 7.248C14.5558 7.636 14.3598 7.966 14.1038 8.238C13.8518 8.51 13.5438 8.72 13.1798 8.868C12.8198 9.012 12.4158 9.084 11.9678 9.084C11.5158 9.084 11.1078 9.012 10.7438 8.868C10.3838 8.72 10.0758 8.51 9.81981 8.238C9.56381 7.966 9.36581 7.636 9.22581 7.248C9.08981 6.86 9.02181 6.426 9.02181 5.946C9.02181 5.466 9.08981 5.034 9.22581 4.65C9.36581 4.262 9.56381 3.932 9.81981 3.66C10.0758 3.384 10.3838 3.174 10.7438 3.03C11.1078 2.882 11.5158 2.808 11.9678 2.808ZM11.9678 8.172C12.5438 8.172 12.9738 7.978 13.2578 7.59C13.5418 7.202 13.6838 6.656 13.6838 5.952C13.6838 5.248 13.5418 4.702 13.2578 4.314C12.9738 3.922 12.5438 3.726 11.9678 3.726C11.3838 3.726 10.9478 3.922 10.6598 4.314C10.3758 4.702 10.2338 5.248 10.2338 5.952C10.2338 6.656 10.3758 7.202 10.6598 7.59C10.9478 7.978 11.3838 8.172 11.9678 8.172ZM17.8518 7.5C18.0438 7.752 18.2498 7.928 18.4698 8.028C18.6938 8.128 18.9438 8.178 19.2198 8.178C19.7558 8.178 20.1698 7.986 20.4618 7.602C20.7578 7.214 20.9058 6.65 20.9058 5.91C20.9058 5.522 20.8718 5.192 20.8038 4.92C20.7398 4.644 20.6438 4.42 20.5158 4.248C20.3918 4.072 20.2378 3.944 20.0538 3.864C19.8698 3.78 19.6618 3.738 19.4298 3.738C19.0898 3.738 18.7938 3.814 18.5418 3.966C18.2938 4.118 18.0638 4.334 17.8518 4.614V7.5ZM17.7918 3.816C17.9198 3.664 18.0558 3.526 18.1998 3.402C18.3478 3.274 18.5058 3.166 18.6738 3.078C18.8418 2.986 19.0198 2.916 19.2078 2.868C19.3998 2.816 19.6038 2.79 19.8198 2.79C20.1678 2.79 20.4818 2.858 20.7618 2.994C21.0458 3.13 21.2878 3.33 21.4878 3.594C21.6878 3.858 21.8418 4.184 21.9498 4.572C22.0618 4.96 22.1178 5.406 22.1178 5.91C22.1178 6.362 22.0558 6.782 21.9318 7.17C21.8118 7.554 21.6378 7.888 21.4098 8.172C21.1858 8.456 20.9098 8.68 20.5818 8.844C20.2578 9.004 19.8918 9.084 19.4838 9.084C19.1198 9.084 18.8078 9.024 18.5478 8.904C18.2878 8.784 18.0558 8.616 17.8518 8.4V11.046H16.6818V2.904H17.3838C17.5478 2.904 17.6498 2.982 17.6898 3.138L17.7918 3.816ZM25.1358 2.904V9H23.9658V2.904H25.1358ZM25.3578 1.02C25.3578 1.128 25.3358 1.232 25.2918 1.332C25.2478 1.428 25.1878 1.514 25.1118 1.59C25.0398 1.662 24.9538 1.72 24.8538 1.764C24.7538 1.804 24.6498 1.824 24.5418 1.824C24.4338 1.824 24.3318 1.804 24.2358 1.764C24.1398 1.72 24.0538 1.662 23.9778 1.59C23.9058 1.514 23.8478 1.428 23.8038 1.332C23.7638 1.232 23.7438 1.128 23.7438 1.02C23.7438 0.908 23.7638 0.804 23.8038 0.707999C23.8478 0.608 23.9058 0.522 23.9778 0.45C24.0538 0.373999 24.1398 0.315999 24.2358 0.275999C24.3318 0.232 24.4338 0.21 24.5418 0.21C24.6498 0.21 24.7538 0.232 24.8538 0.275999C24.9538 0.315999 25.0398 0.373999 25.1118 0.45C25.1878 0.522 25.2478 0.608 25.2918 0.707999C25.3358 0.804 25.3578 0.908 25.3578 1.02ZM31.3478 5.274C31.3478 5.042 31.3138 4.828 31.2458 4.632C31.1818 4.436 31.0858 4.266 30.9578 4.122C30.8298 3.978 30.6738 3.866 30.4898 3.786C30.3058 3.706 30.0938 3.666 29.8538 3.666C29.3618 3.666 28.9738 3.808 28.6898 4.092C28.4098 4.376 28.2318 4.77 28.1558 5.274H31.3478ZM32.3138 8.13C32.1698 8.298 32.0038 8.444 31.8158 8.568C31.6278 8.688 31.4278 8.786 31.2158 8.862C31.0038 8.938 30.7838 8.994 30.5558 9.03C30.3318 9.066 30.1098 9.084 29.8898 9.084C29.4698 9.084 29.0798 9.014 28.7198 8.874C28.3638 8.73 28.0538 8.522 27.7898 8.25C27.5298 7.974 27.3258 7.634 27.1778 7.23C27.0338 6.822 26.9618 6.354 26.9618 5.826C26.9618 5.402 27.0278 5.008 27.1598 4.644C27.2918 4.276 27.4798 3.956 27.7238 3.684C27.9718 3.412 28.2738 3.198 28.6298 3.042C28.9858 2.886 29.3858 2.808 29.8298 2.808C30.2018 2.808 30.5438 2.87 30.8558 2.994C31.1718 3.114 31.4438 3.29 31.6718 3.522C31.8998 3.754 32.0778 4.04 32.2058 4.38C32.3378 4.72 32.4038 5.108 32.4038 5.544C32.4038 5.724 32.3838 5.846 32.3438 5.91C32.3038 5.97 32.2298 6 32.1218 6H28.1258C28.1378 6.364 28.1898 6.682 28.2818 6.954C28.3738 7.222 28.4998 7.446 28.6598 7.626C28.8238 7.806 29.0178 7.94 29.2418 8.028C29.4658 8.116 29.7158 8.16 29.9918 8.16C30.2518 8.16 30.4758 8.13 30.6638 8.07C30.8558 8.01 31.0198 7.946 31.1558 7.878C31.2958 7.806 31.4118 7.74 31.5038 7.68C31.5998 7.62 31.6838 7.59 31.7558 7.59C31.8518 7.59 31.9258 7.626 31.9778 7.698L32.3138 8.13ZM38.0714 4.38C37.8794 4.128 37.6714 3.952 37.4474 3.852C37.2274 3.752 36.9794 3.702 36.7034 3.702C36.1674 3.702 35.7514 3.896 35.4554 4.284C35.1634 4.668 35.0174 5.23 35.0174 5.97C35.0174 6.358 35.0494 6.69 35.1134 6.966C35.1814 7.238 35.2774 7.462 35.4014 7.638C35.5294 7.81 35.6854 7.938 35.8694 8.022C36.0534 8.102 36.2614 8.142 36.4934 8.142C36.8334 8.142 37.1274 8.066 37.3754 7.914C37.6234 7.762 37.8554 7.548 38.0714 7.272V4.38ZM39.2474 0.144V9H38.5394C38.3754 9 38.2734 8.922 38.2334 8.766L38.1314 8.064C37.8714 8.372 37.5754 8.62 37.2434 8.808C36.9154 8.992 36.5354 9.084 36.1034 9.084C35.7554 9.084 35.4394 9.016 35.1554 8.88C34.8754 8.744 34.6354 8.546 34.4354 8.286C34.2354 8.022 34.0814 7.696 33.9734 7.308C33.8654 6.92 33.8114 6.474 33.8114 5.97C33.8114 5.518 33.8714 5.098 33.9914 4.71C34.1114 4.322 34.2854 3.986 34.5134 3.702C34.7414 3.418 35.0174 3.196 35.3414 3.036C35.6654 2.872 36.0314 2.79 36.4394 2.79C36.8074 2.79 37.1194 2.85 37.3754 2.97C37.6354 3.09 37.8674 3.26 38.0714 3.48V0.144H39.2474ZM42.7337 0.383999V3.816C42.7337 3.996 42.7297 4.172 42.7217 4.344C42.7137 4.516 42.7017 4.69 42.6857 4.866C42.6737 5.038 42.6577 5.216 42.6377 5.4C42.6177 5.584 42.5957 5.778 42.5717 5.982H41.7797C41.7557 5.778 41.7337 5.584 41.7137 5.4C41.6937 5.216 41.6757 5.038 41.6597 4.866C41.6477 4.69 41.6377 4.516 41.6297 4.344C41.6217 4.172 41.6177 3.996 41.6177 3.816V0.383999H42.7337ZM41.3657 8.298C41.3657 8.19 41.3857 8.088 41.4257 7.992C41.4657 7.896 41.5217 7.812 41.5937 7.74C41.6657 7.668 41.7497 7.612 41.8457 7.572C41.9417 7.528 42.0457 7.506 42.1577 7.506C42.2657 7.506 42.3677 7.528 42.4637 7.572C42.5597 7.612 42.6437 7.668 42.7157 7.74C42.7877 7.812 42.8437 7.896 42.8837 7.992C42.9277 8.088 42.9497 8.19 42.9497 8.298C42.9497 8.41 42.9277 8.514 42.8837 8.61C42.8437 8.706 42.7877 8.79 42.7157 8.862C42.6437 8.934 42.5597 8.99 42.4637 9.03C42.3677 9.07 42.2657 9.09 42.1577 9.09C42.0457 9.09 41.9417 9.07 41.8457 9.03C41.7497 8.99 41.6657 8.934 41.5937 8.862C41.5217 8.79 41.4657 8.706 41.4257 8.61C41.3857 8.514 41.3657 8.41 41.3657 8.298Z" fill="#FCFDFE"/>
</svg>
