<svg width="96" height="69" viewBox="0 0 96 69" fill="none" xmlns="http://www.w3.org/2000/svg">
<path d="M56 54H47C45.8954 54 45 54.8954 45 56V65C45 66.1046 45.8954 67 47 67H56C57.1046 67 58 66.1046 58 65V56C58 54.8954 57.1046 54 56 54Z" stroke="#FCFDFE" stroke-width="2" stroke-linecap="round" stroke-linejoin="round"/>
<path d="M41 60H40C39.4696 60 38.9609 59.7893 38.5858 59.4142C38.2107 59.0391 38 58.5304 38 58V49C38 48.4696 38.2107 47.9609 38.5858 47.5858C38.9609 47.2107 39.4696 47 40 47H49C49.5304 47 50.0391 47.2107 50.4142 47.5858C50.7893 47.9609 51 48.4696 51 49V50" stroke="#FCFDFE" stroke-width="2" stroke-linecap="round" stroke-linejoin="round"/>
<g filter="url(#filter0_d)">
<path fill-rule="evenodd" clip-rule="evenodd" d="M20 8C17.7909 8 16 9.79086 16 12V30C16 32.2091 17.7909 34 20 34H45.4886L47.2868 37.5262C47.609 38.1579 48.391 38.1579 48.7132 37.5262L50.5114 34H76C78.2091 34 80 32.2091 80 30V12C80 9.79086 78.2091 8 76 8H20Z" fill="#0A2733"/>
</g>
<path d="M33.2728 24.152C33.3448 24.152 33.4068 24.18 33.4588 24.236L33.9628 24.788C33.6108 25.204 33.1808 25.526 32.6728 25.754C32.1688 25.982 31.5608 26.096 30.8488 26.096C30.2248 26.096 29.6588 25.988 29.1508 25.772C28.6468 25.556 28.2148 25.254 27.8548 24.866C27.4988 24.478 27.2228 24.014 27.0268 23.474C26.8308 22.934 26.7328 22.34 26.7328 21.692C26.7328 21.044 26.8348 20.45 27.0388 19.91C27.2468 19.37 27.5368 18.906 27.9088 18.518C28.2808 18.13 28.7248 17.828 29.2408 17.612C29.7608 17.396 30.3348 17.288 30.9628 17.288C31.5748 17.288 32.1188 17.388 32.5948 17.588C33.0708 17.788 33.4848 18.054 33.8368 18.386L33.4168 18.98C33.3888 19.024 33.3528 19.06 33.3088 19.088C33.2688 19.116 33.2148 19.13 33.1468 19.13C33.0708 19.13 32.9808 19.092 32.8768 19.016C32.7768 18.94 32.6428 18.856 32.4748 18.764C32.3108 18.668 32.1068 18.582 31.8628 18.506C31.6188 18.43 31.3148 18.392 30.9508 18.392C30.5228 18.392 30.1308 18.468 29.7748 18.62C29.4188 18.768 29.1108 18.984 28.8508 19.268C28.5948 19.548 28.3948 19.894 28.2508 20.306C28.1108 20.714 28.0408 21.176 28.0408 21.692C28.0408 22.216 28.1148 22.682 28.2628 23.09C28.4108 23.498 28.6148 23.844 28.8748 24.128C29.1348 24.412 29.4408 24.628 29.7928 24.776C30.1448 24.924 30.5248 24.998 30.9328 24.998C31.1808 24.998 31.4028 24.984 31.5988 24.956C31.7988 24.924 31.9808 24.878 32.1448 24.818C32.3128 24.758 32.4708 24.682 32.6188 24.59C32.7668 24.494 32.9128 24.38 33.0568 24.248C33.0888 24.22 33.1228 24.198 33.1588 24.182C33.1948 24.162 33.2328 24.152 33.2728 24.152ZM37.9678 19.808C38.4158 19.808 38.8198 19.882 39.1798 20.03C39.5438 20.174 39.8518 20.384 40.1038 20.66C40.3598 20.932 40.5558 21.262 40.6918 21.65C40.8278 22.034 40.8958 22.466 40.8958 22.946C40.8958 23.426 40.8278 23.86 40.6918 24.248C40.5558 24.636 40.3598 24.966 40.1038 25.238C39.8518 25.51 39.5438 25.72 39.1798 25.868C38.8198 26.012 38.4158 26.084 37.9678 26.084C37.5158 26.084 37.1078 26.012 36.7438 25.868C36.3838 25.72 36.0758 25.51 35.8198 25.238C35.5638 24.966 35.3658 24.636 35.2258 24.248C35.0898 23.86 35.0218 23.426 35.0218 22.946C35.0218 22.466 35.0898 22.034 35.2258 21.65C35.3658 21.262 35.5638 20.932 35.8198 20.66C36.0758 20.384 36.3838 20.174 36.7438 20.03C37.1078 19.882 37.5158 19.808 37.9678 19.808ZM37.9678 25.172C38.5438 25.172 38.9738 24.978 39.2578 24.59C39.5418 24.202 39.6838 23.656 39.6838 22.952C39.6838 22.248 39.5418 21.702 39.2578 21.314C38.9738 20.922 38.5438 20.726 37.9678 20.726C37.3838 20.726 36.9478 20.922 36.6598 21.314C36.3758 21.702 36.2338 22.248 36.2338 22.952C36.2338 23.656 36.3758 24.202 36.6598 24.59C36.9478 24.978 37.3838 25.172 37.9678 25.172ZM43.8518 24.5C44.0438 24.752 44.2498 24.928 44.4698 25.028C44.6938 25.128 44.9438 25.178 45.2198 25.178C45.7558 25.178 46.1698 24.986 46.4618 24.602C46.7578 24.214 46.9058 23.65 46.9058 22.91C46.9058 22.522 46.8718 22.192 46.8038 21.92C46.7398 21.644 46.6438 21.42 46.5158 21.248C46.3918 21.072 46.2378 20.944 46.0538 20.864C45.8698 20.78 45.6618 20.738 45.4298 20.738C45.0898 20.738 44.7938 20.814 44.5418 20.966C44.2938 21.118 44.0638 21.334 43.8518 21.614V24.5ZM43.7918 20.816C43.9198 20.664 44.0558 20.526 44.1998 20.402C44.3478 20.274 44.5058 20.166 44.6738 20.078C44.8418 19.986 45.0198 19.916 45.2078 19.868C45.3998 19.816 45.6038 19.79 45.8198 19.79C46.1678 19.79 46.4818 19.858 46.7618 19.994C47.0458 20.13 47.2878 20.33 47.4878 20.594C47.6878 20.858 47.8418 21.184 47.9498 21.572C48.0618 21.96 48.1178 22.406 48.1178 22.91C48.1178 23.362 48.0558 23.782 47.9318 24.17C47.8118 24.554 47.6378 24.888 47.4098 25.172C47.1858 25.456 46.9098 25.68 46.5818 25.844C46.2578 26.004 45.8918 26.084 45.4838 26.084C45.1198 26.084 44.8078 26.024 44.5478 25.904C44.2878 25.784 44.0558 25.616 43.8518 25.4V28.046H42.6818V19.904H43.3838C43.5478 19.904 43.6498 19.982 43.6898 20.138L43.7918 20.816ZM51.1358 19.904V26H49.9658V19.904H51.1358ZM51.3578 18.02C51.3578 18.128 51.3358 18.232 51.2918 18.332C51.2478 18.428 51.1878 18.514 51.1118 18.59C51.0398 18.662 50.9538 18.72 50.8538 18.764C50.7538 18.804 50.6498 18.824 50.5418 18.824C50.4338 18.824 50.3318 18.804 50.2358 18.764C50.1398 18.72 50.0538 18.662 49.9778 18.59C49.9058 18.514 49.8478 18.428 49.8038 18.332C49.7638 18.232 49.7438 18.128 49.7438 18.02C49.7438 17.908 49.7638 17.804 49.8038 17.708C49.8478 17.608 49.9058 17.522 49.9778 17.45C50.0538 17.374 50.1398 17.316 50.2358 17.276C50.3318 17.232 50.4338 17.21 50.5418 17.21C50.6498 17.21 50.7538 17.232 50.8538 17.276C50.9538 17.316 51.0398 17.374 51.1118 17.45C51.1878 17.522 51.2478 17.608 51.2918 17.708C51.3358 17.804 51.3578 17.908 51.3578 18.02ZM57.3478 22.274C57.3478 22.042 57.3138 21.828 57.2458 21.632C57.1818 21.436 57.0858 21.266 56.9578 21.122C56.8298 20.978 56.6738 20.866 56.4898 20.786C56.3058 20.706 56.0938 20.666 55.8538 20.666C55.3618 20.666 54.9738 20.808 54.6898 21.092C54.4098 21.376 54.2318 21.77 54.1558 22.274H57.3478ZM58.3138 25.13C58.1698 25.298 58.0038 25.444 57.8158 25.568C57.6278 25.688 57.4278 25.786 57.2158 25.862C57.0038 25.938 56.7838 25.994 56.5558 26.03C56.3318 26.066 56.1098 26.084 55.8898 26.084C55.4698 26.084 55.0798 26.014 54.7198 25.874C54.3638 25.73 54.0538 25.522 53.7898 25.25C53.5298 24.974 53.3258 24.634 53.1778 24.23C53.0338 23.822 52.9618 23.354 52.9618 22.826C52.9618 22.402 53.0278 22.008 53.1598 21.644C53.2918 21.276 53.4798 20.956 53.7238 20.684C53.9718 20.412 54.2738 20.198 54.6298 20.042C54.9858 19.886 55.3858 19.808 55.8298 19.808C56.2018 19.808 56.5438 19.87 56.8558 19.994C57.1718 20.114 57.4438 20.29 57.6718 20.522C57.8998 20.754 58.0778 21.04 58.2058 21.38C58.3378 21.72 58.4038 22.108 58.4038 22.544C58.4038 22.724 58.3838 22.846 58.3438 22.91C58.3038 22.97 58.2298 23 58.1218 23H54.1258C54.1378 23.364 54.1898 23.682 54.2818 23.954C54.3738 24.222 54.4998 24.446 54.6598 24.626C54.8238 24.806 55.0178 24.94 55.2418 25.028C55.4658 25.116 55.7158 25.16 55.9918 25.16C56.2518 25.16 56.4758 25.13 56.6638 25.07C56.8558 25.01 57.0198 24.946 57.1558 24.878C57.2958 24.806 57.4118 24.74 57.5038 24.68C57.5998 24.62 57.6838 24.59 57.7558 24.59C57.8518 24.59 57.9258 24.626 57.9778 24.698L58.3138 25.13ZM64.0714 21.38C63.8794 21.128 63.6714 20.952 63.4474 20.852C63.2274 20.752 62.9794 20.702 62.7034 20.702C62.1674 20.702 61.7514 20.896 61.4554 21.284C61.1634 21.668 61.0174 22.23 61.0174 22.97C61.0174 23.358 61.0494 23.69 61.1134 23.966C61.1814 24.238 61.2774 24.462 61.4014 24.638C61.5294 24.81 61.6854 24.938 61.8694 25.022C62.0534 25.102 62.2614 25.142 62.4934 25.142C62.8334 25.142 63.1274 25.066 63.3754 24.914C63.6234 24.762 63.8554 24.548 64.0714 24.272V21.38ZM65.2474 17.144V26H64.5394C64.3754 26 64.2734 25.922 64.2334 25.766L64.1314 25.064C63.8714 25.372 63.5754 25.62 63.2434 25.808C62.9154 25.992 62.5354 26.084 62.1034 26.084C61.7554 26.084 61.4394 26.016 61.1554 25.88C60.8754 25.744 60.6354 25.546 60.4354 25.286C60.2354 25.022 60.0814 24.696 59.9734 24.308C59.8654 23.92 59.8114 23.474 59.8114 22.97C59.8114 22.518 59.8714 22.098 59.9914 21.71C60.1114 21.322 60.2854 20.986 60.5134 20.702C60.7414 20.418 61.0174 20.196 61.3414 20.036C61.6654 19.872 62.0314 19.79 62.4394 19.79C62.8074 19.79 63.1194 19.85 63.3754 19.97C63.6354 20.09 63.8674 20.26 64.0714 20.48V17.144H65.2474ZM68.7337 17.384V20.816C68.7337 20.996 68.7297 21.172 68.7217 21.344C68.7137 21.516 68.7017 21.69 68.6857 21.866C68.6737 22.038 68.6577 22.216 68.6377 22.4C68.6177 22.584 68.5957 22.778 68.5717 22.982H67.7797C67.7557 22.778 67.7337 22.584 67.7137 22.4C67.6937 22.216 67.6757 22.038 67.6597 21.866C67.6477 21.69 67.6377 21.516 67.6297 21.344C67.6217 21.172 67.6177 20.996 67.6177 20.816V17.384H68.7337ZM67.3657 25.298C67.3657 25.19 67.3857 25.088 67.4257 24.992C67.4657 24.896 67.5217 24.812 67.5937 24.74C67.6657 24.668 67.7497 24.612 67.8457 24.572C67.9417 24.528 68.0457 24.506 68.1577 24.506C68.2657 24.506 68.3677 24.528 68.4637 24.572C68.5597 24.612 68.6437 24.668 68.7157 24.74C68.7877 24.812 68.8437 24.896 68.8837 24.992C68.9277 25.088 68.9497 25.19 68.9497 25.298C68.9497 25.41 68.9277 25.514 68.8837 25.61C68.8437 25.706 68.7877 25.79 68.7157 25.862C68.6437 25.934 68.5597 25.99 68.4637 26.03C68.3677 26.07 68.2657 26.09 68.1577 26.09C68.0457 26.09 67.9417 26.07 67.8457 26.03C67.7497 25.99 67.6657 25.934 67.5937 25.862C67.5217 25.79 67.4657 25.706 67.4257 25.61C67.3857 25.514 67.3657 25.41 67.3657 25.298Z" fill="#FCFDFE"/>
<defs>
<filter id="filter0_d" x="0" y="0" width="96" height="62" filterUnits="userSpaceOnUse" color-interpolation-filters="sRGB">
<feFlood flood-opacity="0" result="BackgroundImageFix"/>
<feColorMatrix in="SourceAlpha" type="matrix" values="0 0 0 0 0 0 0 0 0 0 0 0 0 0 0 0 0 0 127 0"/>
<feOffset dy="8"/>
<feGaussianBlur stdDeviation="8"/>
<feColorMatrix type="matrix" values="0 0 0 0 0 0 0 0 0 0 0 0 0 0 0 0 0 0 0.1 0"/>
<feBlend mode="normal" in2="BackgroundImageFix" result="effect1_dropShadow"/>
<feBlend mode="normal" in="SourceGraphic" in2="effect1_dropShadow" result="shape"/>
</filter>
</defs>
</svg>
