<svg width="47" height="51" viewBox="0 0 47 51" fill="none" xmlns="http://www.w3.org/2000/svg">
<path d="M32 37H23C21.8954 37 21 37.8954 21 39V48C21 49.1046 21.8954 50 23 50H32C33.1046 50 34 49.1046 34 48V39C34 37.8954 33.1046 37 32 37Z" stroke="#FCFDFE" stroke-width="2" stroke-linecap="round" stroke-linejoin="round"/>
<path d="M17 43H16C15.4696 43 14.9609 42.7893 14.5858 42.4142C14.2107 42.0391 14 41.5304 14 41V32C14 31.4696 14.2107 30.9609 14.5858 30.5858C14.9609 30.2107 15.4696 30 16 30H25C25.5304 30 26.0391 30.2107 26.4142 30.5858C26.7893 30.9609 27 31.4696 27 32V33" stroke="#FCFDFE" stroke-width="2" stroke-linecap="round" stroke-linejoin="round"/>
<rect x="-8" y="-9" width="64" height="26" rx="4" fill="#0A2733"/>
<path d="M24.7132 20.5262C24.391 21.1579 23.609 21.1579 23.2868 20.5262L16.1186 6.46964C15.7883 5.82192 16.1871 5 16.8318 5L31.1682 5C31.8129 5 32.2117 5.82192 31.8814 6.46964L24.7132 20.5262Z" fill="#0A2733"/>
<path d="M7.52109 7.152C7.59309 7.152 7.65509 7.18 7.70709 7.236L8.21109 7.788C7.85909 8.204 7.42909 8.526 6.92109 8.754C6.41709 8.982 5.80909 9.096 5.09709 9.096C4.47309 9.096 3.90709 8.988 3.39909 8.772C2.89509 8.556 2.46309 8.254 2.10309 7.866C1.74709 7.478 1.47109 7.014 1.27509 6.474C1.07909 5.934 0.981093 5.34 0.981093 4.692C0.981093 4.044 1.08309 3.45 1.28709 2.91C1.49509 2.37 1.78509 1.906 2.15709 1.518C2.52909 1.13 2.97309 0.827999 3.48909 0.611999C4.00909 0.396 4.58309 0.288 5.21109 0.288C5.82309 0.288 6.36709 0.388 6.84309 0.588C7.31909 0.787999 7.73309 1.054 8.08509 1.386L7.66509 1.98C7.63709 2.024 7.60109 2.06 7.55709 2.088C7.51709 2.116 7.46309 2.13 7.39509 2.13C7.31909 2.13 7.22909 2.092 7.12509 2.016C7.02509 1.94 6.89109 1.856 6.72309 1.764C6.55909 1.668 6.35509 1.582 6.11109 1.506C5.86709 1.43 5.56309 1.392 5.19909 1.392C4.77109 1.392 4.37909 1.468 4.02309 1.62C3.66709 1.768 3.35909 1.984 3.09909 2.268C2.84309 2.548 2.64309 2.894 2.49909 3.306C2.35909 3.714 2.28909 4.176 2.28909 4.692C2.28909 5.216 2.36309 5.682 2.51109 6.09C2.65909 6.498 2.86309 6.844 3.12309 7.128C3.38309 7.412 3.68909 7.628 4.04109 7.776C4.39309 7.924 4.77309 7.998 5.18109 7.998C5.42909 7.998 5.65109 7.984 5.84709 7.956C6.04709 7.924 6.22909 7.878 6.39309 7.818C6.56109 7.758 6.71909 7.682 6.86709 7.59C7.01509 7.494 7.16109 7.38 7.30509 7.248C7.33709 7.22 7.37109 7.198 7.40709 7.182C7.44309 7.162 7.48109 7.152 7.52109 7.152ZM12.2161 2.808C12.6641 2.808 13.0681 2.882 13.4281 3.03C13.7921 3.174 14.1001 3.384 14.3521 3.66C14.6081 3.932 14.8041 4.262 14.9401 4.65C15.0761 5.034 15.1441 5.466 15.1441 5.946C15.1441 6.426 15.0761 6.86 14.9401 7.248C14.8041 7.636 14.6081 7.966 14.3521 8.238C14.1001 8.51 13.7921 8.72 13.4281 8.868C13.0681 9.012 12.6641 9.084 12.2161 9.084C11.7641 9.084 11.3561 9.012 10.9921 8.868C10.6321 8.72 10.3241 8.51 10.0681 8.238C9.81209 7.966 9.61409 7.636 9.47409 7.248C9.33809 6.86 9.27009 6.426 9.27009 5.946C9.27009 5.466 9.33809 5.034 9.47409 4.65C9.61409 4.262 9.81209 3.932 10.0681 3.66C10.3241 3.384 10.6321 3.174 10.9921 3.03C11.3561 2.882 11.7641 2.808 12.2161 2.808ZM12.2161 8.172C12.7921 8.172 13.2221 7.978 13.5061 7.59C13.7901 7.202 13.9321 6.656 13.9321 5.952C13.9321 5.248 13.7901 4.702 13.5061 4.314C13.2221 3.922 12.7921 3.726 12.2161 3.726C11.6321 3.726 11.1961 3.922 10.9081 4.314C10.6241 4.702 10.4821 5.248 10.4821 5.952C10.4821 6.656 10.6241 7.202 10.9081 7.59C11.1961 7.978 11.6321 8.172 12.2161 8.172ZM18.1001 7.5C18.2921 7.752 18.4981 7.928 18.7181 8.028C18.9421 8.128 19.1921 8.178 19.4681 8.178C20.0041 8.178 20.4181 7.986 20.7101 7.602C21.0061 7.214 21.1541 6.65 21.1541 5.91C21.1541 5.522 21.1201 5.192 21.0521 4.92C20.9881 4.644 20.8921 4.42 20.7641 4.248C20.6401 4.072 20.4861 3.944 20.3021 3.864C20.1181 3.78 19.9101 3.738 19.6781 3.738C19.3381 3.738 19.0421 3.814 18.7901 3.966C18.5421 4.118 18.3121 4.334 18.1001 4.614V7.5ZM18.0401 3.816C18.1681 3.664 18.3041 3.526 18.4481 3.402C18.5961 3.274 18.7541 3.166 18.9221 3.078C19.0901 2.986 19.2681 2.916 19.4561 2.868C19.6481 2.816 19.8521 2.79 20.0681 2.79C20.4161 2.79 20.7301 2.858 21.0101 2.994C21.2941 3.13 21.5361 3.33 21.7361 3.594C21.9361 3.858 22.0901 4.184 22.1981 4.572C22.3101 4.96 22.3661 5.406 22.3661 5.91C22.3661 6.362 22.3041 6.782 22.1801 7.17C22.0601 7.554 21.8861 7.888 21.6581 8.172C21.4341 8.456 21.1581 8.68 20.8301 8.844C20.5061 9.004 20.1401 9.084 19.7321 9.084C19.3681 9.084 19.0561 9.024 18.7961 8.904C18.5361 8.784 18.3041 8.616 18.1001 8.4V11.046H16.9301V2.904H17.6321C17.7961 2.904 17.8981 2.982 17.9381 3.138L18.0401 3.816ZM29.3241 2.904L25.9401 10.77C25.9041 10.858 25.8561 10.926 25.7961 10.974C25.7361 11.022 25.6481 11.046 25.5321 11.046H24.6621L25.7781 8.616L23.2761 2.904H24.2961C24.3961 2.904 24.4741 2.928 24.5301 2.976C24.5861 3.024 24.6261 3.078 24.6501 3.138L26.1981 6.798C26.2301 6.89 26.2601 6.984 26.2881 7.08C26.3201 7.172 26.3461 7.264 26.3661 7.356C26.3941 7.26 26.4241 7.166 26.4561 7.074C26.4881 6.978 26.5221 6.884 26.5581 6.792L28.0521 3.138C28.0801 3.07 28.1241 3.014 28.1841 2.97C28.2441 2.926 28.3121 2.904 28.3881 2.904H29.3241ZM38.3405 5.79L37.0625 2.448C36.9705 2.22 36.8785 1.932 36.7865 1.584C36.7425 1.756 36.6965 1.916 36.6485 2.064C36.6045 2.212 36.5605 2.344 36.5165 2.46L35.2445 5.79H38.3405ZM40.8665 9H39.8825C39.7705 9 39.6785 8.972 39.6065 8.916C39.5345 8.86 39.4825 8.788 39.4505 8.7L38.6885 6.702H34.8905L34.1285 8.7C34.1005 8.776 34.0485 8.846 33.9725 8.91C33.8965 8.97 33.8045 9 33.6965 9H32.7125L36.1445 0.383999H37.4345L40.8665 9ZM43.3587 0.144V9H42.1827V0.144H43.3587ZM46.7098 0.144V9H45.5338V0.144H46.7098Z" fill="#FCFDFE"/>
</svg>
