<svg width="96" height="69" viewBox="0 0 96 69" fill="none" xmlns="http://www.w3.org/2000/svg">
<path d="M56 54H47C45.8954 54 45 54.8954 45 56V65C45 66.1046 45.8954 67 47 67H56C57.1046 67 58 66.1046 58 65V56C58 54.8954 57.1046 54 56 54Z" stroke="#FCFDFE" stroke-width="2" stroke-linecap="round" stroke-linejoin="round"/>
<path d="M41 60H40C39.4696 60 38.9609 59.7893 38.5858 59.4142C38.2107 59.0391 38 58.5304 38 58V49C38 48.4696 38.2107 47.9609 38.5858 47.5858C38.9609 47.2107 39.4696 47 40 47H49C49.5304 47 50.0391 47.2107 50.4142 47.5858C50.7893 47.9609 51 48.4696 51 49V50" stroke="#FCFDFE" stroke-width="2" stroke-linecap="round" stroke-linejoin="round"/>
<g filter="url(#filter0_d)">
<path fill-rule="evenodd" clip-rule="evenodd" d="M20 8C17.7909 8 16 9.79086 16 12V30C16 32.2091 17.7909 34 20 34H45.4886L47.2868 37.5262C47.609 38.1579 48.391 38.1579 48.7132 37.5262L50.5114 34H76C78.2091 34 80 32.2091 80 30V12C80 9.79086 78.2091 8 76 8H20Z" fill="#0A2733"/>
</g>
<path d="M31.5211 24.152C31.5931 24.152 31.6551 24.18 31.7071 24.236L32.2111 24.788C31.8591 25.204 31.4291 25.526 30.9211 25.754C30.4171 25.982 29.8091 26.096 29.0971 26.096C28.4731 26.096 27.9071 25.988 27.3991 25.772C26.8951 25.556 26.4631 25.254 26.1031 24.866C25.7471 24.478 25.4711 24.014 25.2751 23.474C25.0791 22.934 24.9811 22.34 24.9811 21.692C24.9811 21.044 25.0831 20.45 25.2871 19.91C25.4951 19.37 25.7851 18.906 26.1571 18.518C26.5291 18.13 26.9731 17.828 27.4891 17.612C28.0091 17.396 28.5831 17.288 29.2111 17.288C29.8231 17.288 30.3671 17.388 30.8431 17.588C31.3191 17.788 31.7331 18.054 32.0851 18.386L31.6651 18.98C31.6371 19.024 31.6011 19.06 31.5571 19.088C31.5171 19.116 31.4631 19.13 31.3951 19.13C31.3191 19.13 31.2291 19.092 31.1251 19.016C31.0251 18.94 30.8911 18.856 30.7231 18.764C30.5591 18.668 30.3551 18.582 30.1111 18.506C29.8671 18.43 29.5631 18.392 29.1991 18.392C28.7711 18.392 28.3791 18.468 28.0231 18.62C27.6671 18.768 27.3591 18.984 27.0991 19.268C26.8431 19.548 26.6431 19.894 26.4991 20.306C26.3591 20.714 26.2891 21.176 26.2891 21.692C26.2891 22.216 26.3631 22.682 26.5111 23.09C26.6591 23.498 26.8631 23.844 27.1231 24.128C27.3831 24.412 27.6891 24.628 28.0411 24.776C28.3931 24.924 28.7731 24.998 29.1811 24.998C29.4291 24.998 29.6511 24.984 29.8471 24.956C30.0471 24.924 30.2291 24.878 30.3931 24.818C30.5611 24.758 30.7191 24.682 30.8671 24.59C31.0151 24.494 31.1611 24.38 31.3051 24.248C31.3371 24.22 31.3711 24.198 31.4071 24.182C31.4431 24.162 31.4811 24.152 31.5211 24.152ZM36.2161 19.808C36.6641 19.808 37.0681 19.882 37.4281 20.03C37.7921 20.174 38.1001 20.384 38.3521 20.66C38.6081 20.932 38.8041 21.262 38.9401 21.65C39.0761 22.034 39.1441 22.466 39.1441 22.946C39.1441 23.426 39.0761 23.86 38.9401 24.248C38.8041 24.636 38.6081 24.966 38.3521 25.238C38.1001 25.51 37.7921 25.72 37.4281 25.868C37.0681 26.012 36.6641 26.084 36.2161 26.084C35.7641 26.084 35.3561 26.012 34.9921 25.868C34.6321 25.72 34.3241 25.51 34.0681 25.238C33.8121 24.966 33.6141 24.636 33.4741 24.248C33.3381 23.86 33.2701 23.426 33.2701 22.946C33.2701 22.466 33.3381 22.034 33.4741 21.65C33.6141 21.262 33.8121 20.932 34.0681 20.66C34.3241 20.384 34.6321 20.174 34.9921 20.03C35.3561 19.882 35.7641 19.808 36.2161 19.808ZM36.2161 25.172C36.7921 25.172 37.2221 24.978 37.5061 24.59C37.7901 24.202 37.9321 23.656 37.9321 22.952C37.9321 22.248 37.7901 21.702 37.5061 21.314C37.2221 20.922 36.7921 20.726 36.2161 20.726C35.6321 20.726 35.1961 20.922 34.9081 21.314C34.6241 21.702 34.4821 22.248 34.4821 22.952C34.4821 23.656 34.6241 24.202 34.9081 24.59C35.1961 24.978 35.6321 25.172 36.2161 25.172ZM42.1001 24.5C42.2921 24.752 42.4981 24.928 42.7181 25.028C42.9421 25.128 43.1921 25.178 43.4681 25.178C44.0041 25.178 44.4181 24.986 44.7101 24.602C45.0061 24.214 45.1541 23.65 45.1541 22.91C45.1541 22.522 45.1201 22.192 45.0521 21.92C44.9881 21.644 44.8921 21.42 44.7641 21.248C44.6401 21.072 44.4861 20.944 44.3021 20.864C44.1181 20.78 43.9101 20.738 43.6781 20.738C43.3381 20.738 43.0421 20.814 42.7901 20.966C42.5421 21.118 42.3121 21.334 42.1001 21.614V24.5ZM42.0401 20.816C42.1681 20.664 42.3041 20.526 42.4481 20.402C42.5961 20.274 42.7541 20.166 42.9221 20.078C43.0901 19.986 43.2681 19.916 43.4561 19.868C43.6481 19.816 43.8521 19.79 44.0681 19.79C44.4161 19.79 44.7301 19.858 45.0101 19.994C45.2941 20.13 45.5361 20.33 45.7361 20.594C45.9361 20.858 46.0901 21.184 46.1981 21.572C46.3101 21.96 46.3661 22.406 46.3661 22.91C46.3661 23.362 46.3041 23.782 46.1801 24.17C46.0601 24.554 45.8861 24.888 45.6581 25.172C45.4341 25.456 45.1581 25.68 44.8301 25.844C44.5061 26.004 44.1401 26.084 43.7321 26.084C43.3681 26.084 43.0561 26.024 42.7961 25.904C42.5361 25.784 42.3041 25.616 42.1001 25.4V28.046H40.9301V19.904H41.6321C41.7961 19.904 41.8981 19.982 41.9381 20.138L42.0401 20.816ZM53.3241 19.904L49.9401 27.77C49.9041 27.858 49.8561 27.926 49.7961 27.974C49.7361 28.022 49.6481 28.046 49.5321 28.046H48.6621L49.7781 25.616L47.2761 19.904H48.2961C48.3961 19.904 48.4741 19.928 48.5301 19.976C48.5861 20.024 48.6261 20.078 48.6501 20.138L50.1981 23.798C50.2301 23.89 50.2601 23.984 50.2881 24.08C50.3201 24.172 50.3461 24.264 50.3661 24.356C50.3941 24.26 50.4241 24.166 50.4561 24.074C50.4881 23.978 50.5221 23.884 50.5581 23.792L52.0521 20.138C52.0801 20.07 52.1241 20.014 52.1841 19.97C52.2441 19.926 52.3121 19.904 52.3881 19.904H53.3241ZM62.3405 22.79L61.0625 19.448C60.9705 19.22 60.8785 18.932 60.7865 18.584C60.7425 18.756 60.6965 18.916 60.6485 19.064C60.6045 19.212 60.5605 19.344 60.5165 19.46L59.2445 22.79H62.3405ZM64.8665 26H63.8825C63.7705 26 63.6785 25.972 63.6065 25.916C63.5345 25.86 63.4825 25.788 63.4505 25.7L62.6885 23.702H58.8905L58.1285 25.7C58.1005 25.776 58.0485 25.846 57.9725 25.91C57.8965 25.97 57.8045 26 57.6965 26H56.7125L60.1445 17.384H61.4345L64.8665 26ZM67.3587 17.144V26H66.1827V17.144H67.3587ZM70.7098 17.144V26H69.5338V17.144H70.7098Z" fill="#FCFDFE"/>
<defs>
<filter id="filter0_d" x="0" y="0" width="96" height="62" filterUnits="userSpaceOnUse" color-interpolation-filters="sRGB">
<feFlood flood-opacity="0" result="BackgroundImageFix"/>
<feColorMatrix in="SourceAlpha" type="matrix" values="0 0 0 0 0 0 0 0 0 0 0 0 0 0 0 0 0 0 127 0"/>
<feOffset dy="8"/>
<feGaussianBlur stdDeviation="8"/>
<feColorMatrix type="matrix" values="0 0 0 0 0 0 0 0 0 0 0 0 0 0 0 0 0 0 0.1 0"/>
<feBlend mode="normal" in2="BackgroundImageFix" result="effect1_dropShadow"/>
<feBlend mode="normal" in="SourceGraphic" in2="effect1_dropShadow" result="shape"/>
</filter>
</defs>
</svg>
